<svg width="365" height="214" viewBox="0 0 365 214" fill="none" xmlns="http://www.w3.org/2000/svg">
<path d="M-8.40892 209.009C-8.40892 209.009 -7.66918 208.97 -6.28693 208.908C-5.94208 208.88 -5.55462 208.892 -5.13383 208.83C-4.71123 208.776 -4.25683 208.715 -3.75778 208.647C-3.25872 208.58 -2.72606 208.514 -2.1585 208.435C-1.59993 208.317 -1.00159 208.189 -0.374522 208.06C2.1502 207.558 5.14075 206.62 8.42188 205.211C9.23158 204.835 10.0918 204.497 10.9238 204.053C11.7607 203.613 12.6196 203.159 13.5006 202.691C14.3531 202.171 15.2246 201.643 16.1181 201.102C16.9935 200.535 17.8593 199.908 18.7574 199.295C23.1964 195.887 27.1911 191.79 30.6714 187.212C32.3619 184.888 33.9972 182.468 35.352 179.898C36.7763 177.359 37.9653 174.685 39.0829 171.972C41.2212 166.507 42.8283 160.781 43.9378 154.926C45.0601 149.072 45.7796 143.101 46.237 137.08C46.4801 134.068 46.6444 131.041 46.8038 128.011C46.954 124.995 47.1104 121.97 47.3327 118.959C47.7804 112.932 48.4677 106.892 49.8774 101.015C50.5896 98.0812 51.4837 95.1937 52.617 92.4025C53.7485 89.6033 55.0909 86.9236 56.76 84.4498C58.4194 81.97 60.375 79.6905 62.6001 77.697C64.8251 75.7035 67.33 74.0228 70.0143 72.6736C75.3757 69.9434 81.5 68.7378 87.6195 68.8798C93.7449 69.0665 99.8724 70.6117 105.489 73.3015C106.184 73.6581 106.887 73.9921 107.57 74.3682C108.244 74.759 108.947 75.1138 109.594 75.5357C110.249 75.9557 110.911 76.366 111.555 76.7927L113.45 78.1651C115.924 80.0666 118.223 82.2255 120.289 84.5793C122.364 86.9312 124.202 89.4956 125.698 92.2465C127.2 94.9876 128.39 97.8871 129.172 100.884C129.97 103.876 130.286 106.974 130.1 110.036C129.995 113.066 129.167 116.022 127.914 118.786C127.248 120.146 126.513 121.483 125.603 122.689C125.185 123.32 124.666 123.872 124.191 124.452C123.945 124.734 123.668 124.989 123.408 125.262C123.148 125.534 122.89 125.801 122.597 126.039L121.752 126.775C121.457 127.005 121.153 127.216 120.856 127.438L120.409 127.769L119.934 128.057L118.989 128.627L117.998 129.107C117.832 129.186 117.672 129.277 117.503 129.34L116.989 129.528C116.645 129.652 116.31 129.795 115.962 129.903L114.908 130.18C109.24 131.571 102.818 129.724 98.2696 125.859C93.661 121.971 90.7679 116.054 89.9428 109.927C89.1044 103.777 90.2771 97.3142 93.2101 91.8315C94.7131 89.0484 96.5569 86.4597 98.7203 84.1749C100.887 81.8853 103.381 79.9185 106.087 78.2758C111.513 74.9791 117.77 73.0323 124.178 72.1011C130.599 71.1712 137.198 71.2129 143.703 71.9531C146.957 72.3271 150.191 72.873 153.388 73.5862C156.592 74.2975 159.702 75.2018 162.857 76.2297C169.15 78.2684 175.362 80.6852 181.631 83.043C187.904 85.3958 194.242 87.7086 200.78 89.4786C207.309 91.2631 213.936 92.5779 220.597 93.3413C233.917 94.8937 247.322 94.5285 260.261 92.3957C266.736 91.3363 273.099 89.8718 279.295 87.989C285.487 86.1032 291.519 83.8231 297.328 81.1838C303.141 78.5475 308.739 75.5504 314.069 72.2208C319.398 68.8833 324.44 65.2012 329.198 61.2654C333.94 57.3125 338.381 53.0808 342.436 48.5647C346.49 44.0485 350.164 39.2509 353.279 34.1492C357.038 27.4002 359.135 20.6267 359.688 15.0275C360.261 9.40698 359.344 5.05698 357.969 2.6343" stroke="#787FDC" stroke-width="10" stroke-miterlimit="10"/>
</svg>
