<svg width="318" height="170" viewBox="0 0 318 170" fill="none" xmlns="http://www.w3.org/2000/svg">
<path d="M317.249 209.009C317.249 209.009 316.51 208.97 315.128 208.908C314.783 208.88 314.395 208.892 313.974 208.83C313.552 208.776 313.097 208.715 312.598 208.647C312.099 208.58 311.567 208.514 310.999 208.435C310.441 208.317 309.842 208.189 309.215 208.06C306.69 207.558 303.7 206.62 300.419 205.211C299.609 204.835 298.749 204.497 297.917 204.053C297.08 203.613 296.221 203.159 295.34 202.691C294.487 202.171 293.616 201.643 292.722 201.102C291.847 200.535 290.981 199.908 290.083 199.295C285.644 195.887 281.649 191.79 278.169 187.212C276.479 184.888 274.843 182.468 273.489 179.898C272.064 177.359 270.875 174.685 269.758 171.972C267.619 166.507 266.012 160.781 264.903 154.926C263.78 149.072 263.061 143.101 262.604 137.08C262.36 134.068 262.196 131.041 262.037 128.011C261.887 124.995 261.73 121.97 261.508 118.959C261.06 112.932 260.373 106.892 258.963 101.015C258.251 98.0812 257.357 95.1937 256.224 92.4025C255.092 89.6033 253.75 86.9236 252.081 84.4498C250.421 81.97 248.466 79.6905 246.241 77.697C244.015 75.7035 241.511 74.0228 238.826 72.6736C233.465 69.9434 227.341 68.7378 221.221 68.8798C215.096 69.0665 208.968 70.6117 203.351 73.3015C202.656 73.6581 201.953 73.9921 201.271 74.3682C200.597 74.759 199.894 75.1138 199.246 75.5357C198.591 75.9557 197.93 76.366 197.286 76.7927L195.391 78.1651C192.916 80.0666 190.618 82.2255 188.551 84.5793C186.477 86.9312 184.639 89.4956 183.143 92.2465C181.641 94.9876 180.45 97.8871 179.668 100.884C178.87 103.876 178.555 106.974 178.74 110.036C178.845 113.066 179.674 116.022 180.926 118.786C181.593 120.146 182.327 121.483 183.238 122.689C183.656 123.32 184.175 123.872 184.65 124.452C184.895 124.734 185.172 124.989 185.433 125.262C185.693 125.534 185.95 125.801 186.243 126.039L187.089 126.775C187.384 127.005 187.687 127.216 187.984 127.438L188.432 127.769L188.906 128.057L189.852 128.627L190.843 129.107C191.009 129.186 191.168 129.277 191.338 129.34L191.851 129.528C192.195 129.652 192.531 129.795 192.879 129.903L193.932 130.18C199.601 131.571 206.022 129.724 210.571 125.859C215.18 121.971 218.073 116.054 218.898 109.927C219.736 103.777 218.563 97.3142 215.631 91.8315C214.127 89.0484 212.284 86.4597 210.12 84.1749C207.954 81.8853 205.459 79.9185 202.753 78.2758C197.328 74.9791 191.07 73.0323 184.662 72.1011C178.242 71.1712 171.643 71.2129 165.137 71.9531C161.884 72.3271 158.65 72.873 155.453 73.5862C152.249 74.2975 149.138 75.2018 145.983 76.2297C139.69 78.2684 133.479 80.6852 127.209 83.043C120.937 85.3958 114.598 87.7086 108.061 89.4786C101.532 91.2631 94.9048 92.5779 88.2435 93.3413C74.9232 94.8937 61.5182 94.5285 48.5796 92.3957C42.1046 91.3363 35.742 89.8718 29.5451 87.989C23.3531 86.1032 17.3213 83.8231 11.5129 81.1838C5.69954 78.5475 0.101615 75.5504 -5.22884 72.2208C-10.5575 68.8833 -15.5992 65.2012 -20.3578 61.2654C-25.0999 57.3125 -29.5408 53.0808 -33.5953 48.5647C-37.6499 44.0485 -41.3231 39.2509 -44.4383 34.1492C-48.1971 27.4002 -50.2947 20.6267 -50.8475 15.0275C-51.4205 9.40698 -50.5039 5.05698 -49.1283 2.6343" stroke="#787FDC" stroke-width="10" stroke-miterlimit="10"/>
</svg>
