<svg width="51" height="50" viewBox="0 0 51 50" fill="none" xmlns="http://www.w3.org/2000/svg">
<path d="M15.0121 20.7621H21.2621V14.5121L13.9704 7.2204C16.303 6.10639 18.9235 5.74291 21.4712 6.18003C24.0189 6.61715 26.3685 7.83335 28.1963 9.66118C30.0241 11.489 31.2403 13.8385 31.6774 16.3862C32.1146 18.9339 31.7511 21.5545 30.6371 23.8871L43.1371 36.3871C43.9659 37.2159 44.4315 38.34 44.4315 39.5121C44.4315 40.6842 43.9659 41.8083 43.1371 42.6371C42.3083 43.4659 41.1842 43.9315 40.0121 43.9315C38.84 43.9315 37.7159 43.4659 36.8871 42.6371L24.3871 30.1371C22.0545 31.2511 19.4339 31.6146 16.8862 31.1774C14.3385 30.7403 11.989 29.5241 10.1612 27.6963C8.33335 25.8685 7.11715 23.5189 6.68003 20.9712C6.24291 18.4235 6.60639 15.803 7.7204 13.4704L15.0121 20.7621Z" fill="#787FDC" stroke="#1B1725" stroke-width="2" stroke-linecap="round" stroke-linejoin="round"/>
</svg>
