<svg width="51" height="50" viewBox="0 0 51 50" fill="none" xmlns="http://www.w3.org/2000/svg">
<path d="M39.2918 19.7916V38.5416V19.7916ZM12.2084 38.5416V45.8333H39.2918V38.5416M12.2084 38.5416H4.91675V12.5L10.1251 7.29163L17.4167 4.16663H34.0834L41.3751 7.29163L46.5834 12.5V38.5416H39.2918M12.2084 38.5416V19.7916V38.5416Z" fill="#FFEB53"/>
<path d="M39.2918 19.7916V38.5416M39.2918 38.5416V45.8333H12.2084V38.5416M39.2918 38.5416H46.5834V12.5L41.3751 7.29163L34.0834 4.16663H17.4167L10.1251 7.29163L4.91675 12.5V38.5416H12.2084M12.2084 38.5416V19.7916" stroke="#1B1725" stroke-width="2" stroke-linecap="round" stroke-linejoin="round"/>
<path d="M25.75 21.875V45.8333" stroke="#1B1725" stroke-width="2" stroke-linecap="round" stroke-linejoin="round"/>
<path d="M10.125 7.29163L25.75 21.875" stroke="#1B1725" stroke-width="2" stroke-linecap="round" stroke-linejoin="round"/>
<path d="M17.4167 4.16663L25.7501 21.875" stroke="#1B1725" stroke-width="2" stroke-linecap="round" stroke-linejoin="round"/>
<path d="M34.0833 4.16663L25.75 21.875L34.0833 4.16663Z" fill="#FFEB53"/>
<path d="M34.0833 4.16663L25.75 21.875" stroke="#1B1725" stroke-width="2" stroke-linecap="round" stroke-linejoin="round"/>
<path d="M41.375 7.29163L25.75 21.875L41.375 7.29163Z" fill="#FFEB53"/>
<path d="M41.375 7.29163L25.75 21.875" stroke="#1B1725" stroke-width="2" stroke-linecap="round" stroke-linejoin="round"/>
</svg>
