<svg width="51" height="50" viewBox="0 0 51 50" fill="none" xmlns="http://www.w3.org/2000/svg">
<path d="M29 37.5H22V42L20.5 46H30.5L28 42L29 37.5Z" fill="#787FDC"/>
<path d="M29.4167 4.16663H21.0834C14.2501 4.16663 10.8355 4.16663 8.41466 5.86246C7.51892 6.48969 6.73981 7.26879 6.11258 8.16454C4.41675 10.5833 4.41675 14 4.41675 20.8333C4.41675 27.6666 4.41675 31.0812 6.11258 33.502C6.73981 34.3978 7.51892 35.1769 8.41466 35.8041C10.8334 37.5 14.2501 37.5 21.0834 37.5H29.4167C36.2501 37.5 39.6647 37.5 42.0855 35.8041C42.9812 35.1769 43.7604 34.3978 44.3876 33.502C46.0834 31.0833 46.0834 27.6666 46.0834 20.8333C46.0834 14 46.0834 10.5854 44.3876 8.16454C43.7604 7.26879 42.9812 6.48969 42.0855 5.86246C39.6667 4.16663 36.2501 4.16663 29.4167 4.16663ZM23.1667 31.25H27.3334H23.1667ZM30.4584 45.8333L29.8001 44.9604C28.3209 42.9937 27.9522 39.9875 28.8897 37.5M20.0417 45.8333L20.7001 44.9604C22.1792 42.9937 22.548 39.9875 21.6105 37.5M14.8334 45.8333H35.6667H14.8334Z" fill="white"/>
<path d="M23.1667 31.25H27.3334M30.4584 45.8333L29.8001 44.9604C28.3209 42.9937 27.9522 39.9875 28.8897 37.5M20.0417 45.8333L20.7001 44.9604C22.1792 42.9937 22.548 39.9875 21.6105 37.5M14.8334 45.8333H35.6668M29.4167 4.16663H21.0834C14.2501 4.16663 10.8355 4.16663 8.41466 5.86246C7.51892 6.48969 6.73981 7.26879 6.11258 8.16454C4.41675 10.5833 4.41675 14 4.41675 20.8333C4.41675 27.6666 4.41675 31.0812 6.11258 33.502C6.73981 34.3978 7.51892 35.1769 8.41466 35.8041C10.8334 37.5 14.2501 37.5 21.0834 37.5H29.4167C36.2501 37.5 39.6647 37.5 42.0855 35.8041C42.9812 35.1769 43.7604 34.3978 44.3876 33.502C46.0834 31.0833 46.0834 27.6666 46.0834 20.8333C46.0834 14 46.0834 10.5854 44.3876 8.16454C43.7604 7.26879 42.9812 6.48969 42.0855 5.86246C39.6667 4.16663 36.2501 4.16663 29.4167 4.16663Z" stroke="#1B1725" stroke-width="2" stroke-linecap="round" stroke-linejoin="round"/>
</svg>
