<svg width="51" height="50" viewBox="0 0 51 50" fill="none" xmlns="http://www.w3.org/2000/svg">
<path d="M10 31.5L9.5 28L4.5 26V10L6.5 7H28.5L31.5 10L32 19H24.5L21 22V28H14.5L12 31L10 31.5Z" fill="#FFEB53"/>
<path d="M36.5 40.5L41.5 44.5L42.5 40.5L45 40L47.5 37.5V22.5L44.5 19.5H23.5L21 22V37.5L23.5 40L36.5 40.5Z" fill="white"/>
<path d="M7.83002 6.23633C7.9569 6.23589 7.9569 6.23589 8.08634 6.23545C8.37031 6.2346 8.65427 6.23445 8.93823 6.2343C9.14164 6.23385 9.34504 6.23336 9.54845 6.23284C10.1015 6.23155 10.6546 6.23092 11.2077 6.23049C11.5533 6.2302 11.8989 6.2298 12.2446 6.22937C13.3262 6.22803 14.4078 6.22709 15.4895 6.22671C16.7376 6.22627 17.9856 6.22456 19.2337 6.22173C20.1987 6.21962 21.1637 6.21863 22.1286 6.2185C22.7048 6.2184 23.281 6.21783 23.8572 6.21608C24.3995 6.21447 24.9418 6.21426 25.4842 6.21512C25.6828 6.21519 25.8815 6.21477 26.0801 6.2138C27.9886 6.20506 27.9886 6.20506 28.7773 6.54301C28.8657 6.57524 28.954 6.60746 29.0451 6.64067C30.3252 7.24089 31.284 8.31549 31.7685 9.63141C32.0685 10.511 32.0623 11.3599 32.0476 12.2799C32.0467 12.4508 32.046 12.6217 32.0455 12.7926C32.0437 13.2371 32.0389 13.6816 32.0335 14.1262C32.0284 14.5818 32.0262 15.0375 32.0238 15.4932C32.0186 16.3836 32.0103 17.2738 31.9999 18.1641C32.0604 18.1637 32.1209 18.1634 32.1832 18.163C33.6612 18.1543 35.1393 18.1479 36.6174 18.1439C37.3322 18.1419 38.047 18.1391 38.7618 18.1346C39.3856 18.1307 40.0093 18.1282 40.6331 18.1273C40.9627 18.1268 41.2923 18.1255 41.6219 18.1228C43.7129 18.1066 45.5813 18.1424 47.2099 19.635C48.4057 20.9135 48.7452 22.3496 48.7371 24.0616C48.7375 24.1984 48.738 24.3353 48.7386 24.4721C48.7399 24.8401 48.7394 25.2081 48.7385 25.5761C48.7378 25.9635 48.7385 26.3508 48.7389 26.7381C48.7394 27.3882 48.7388 28.0383 48.7374 28.6885C48.7358 29.4374 48.7363 30.1862 48.7379 30.9351C48.7392 31.581 48.7394 32.227 48.7386 32.8729C48.7382 33.2574 48.7381 33.6419 48.7391 34.0264C48.7399 34.3881 48.7393 34.7497 48.7377 35.1114C48.7371 35.3055 48.7379 35.4995 48.7389 35.6936C48.7277 37.2892 48.2819 38.5524 47.1775 39.7179C46.1674 40.6741 44.9215 41.222 43.5234 41.211C43.5254 41.2833 43.5275 41.3556 43.5296 41.4301C43.5378 41.7619 43.5428 42.0937 43.5478 42.4256C43.5511 42.5393 43.5543 42.6531 43.5577 42.7702C43.5664 43.5454 43.5112 44.2238 42.9618 44.812C42.4892 45.2499 42.0423 45.4383 41.3932 45.4468C41.298 45.4496 41.2027 45.4524 41.1045 45.4552C40.4974 45.3686 40.0581 45.1223 39.6778 44.6387C39.5647 44.4858 39.4521 44.3325 39.3398 44.1789C38.2432 42.7871 37.0692 41.3582 35.2418 41.0435C33.7218 40.8645 32.1837 40.9306 30.659 41.0144C29.89 41.056 29.1207 41.0733 28.3508 41.0902C28.0783 41.0964 27.8059 41.1026 27.5334 41.1091C27.4673 41.1107 27.4013 41.1123 27.3332 41.1139C26.8847 41.1252 26.4367 41.1431 25.9885 41.1639C25.8099 41.1715 25.8099 41.1715 25.6277 41.1793C25.4081 41.1889 25.1885 41.1998 24.969 41.2124C23.5761 41.2707 22.2835 40.8266 21.2272 39.9109C20.2763 38.9965 19.5337 37.9242 19.4882 36.5625C19.4879 36.4252 19.4882 36.2878 19.4889 36.1505C19.4888 36.0752 19.4888 35.9998 19.4888 35.9222C19.4889 35.6744 19.4896 35.4266 19.4904 35.1788C19.4906 35.0065 19.4907 34.8343 19.4908 34.662C19.4912 34.2094 19.4922 33.7568 19.4932 33.3043C19.4942 32.8421 19.4947 32.38 19.4952 31.9178C19.4962 31.0116 19.4979 30.1054 19.4999 29.1993C18.7879 29.1659 18.0765 29.1475 17.3637 29.1391C17.1219 29.1345 16.8802 29.1266 16.6386 29.1152C15.2992 29.0156 15.2992 29.0156 14.0852 29.4716C13.664 29.9052 13.362 30.4003 13.0772 30.9307C12.9294 31.2032 12.7561 31.4509 12.5732 31.7009C12.4276 31.9108 12.2828 32.1209 12.1406 32.333C11.7426 32.9013 11.303 33.2862 10.6258 33.4778C9.92231 33.5292 9.33885 33.4876 8.75699 33.0586C8.25987 32.6041 8.00505 32.1123 7.95352 31.4373C7.94774 31.0977 7.95091 30.7595 7.95819 30.42C7.96017 30.2436 7.96017 30.2436 7.9622 30.0637C7.96563 29.7755 7.97043 29.4874 7.9765 29.1993C7.86031 29.2025 7.74412 29.2058 7.6244 29.2092C6.3777 29.2075 5.15045 28.5608 4.27777 27.7039C3.85459 27.2584 3.5347 26.8319 3.289 26.2696C3.23367 26.1436 3.23367 26.1436 3.17723 26.0151C2.9221 25.4048 2.78889 24.8811 2.787 24.2157C2.78645 24.0974 2.78589 23.9791 2.78531 23.8573C2.78519 23.727 2.78508 23.5968 2.78498 23.4665C2.78453 23.3286 2.78404 23.1908 2.78351 23.053C2.78224 22.6791 2.7816 22.3052 2.78117 21.9312C2.78088 21.6973 2.78048 21.4633 2.78005 21.2293C2.77871 20.4961 2.77777 19.7629 2.77739 19.0298C2.77695 18.1855 2.77524 17.3412 2.77241 16.497C2.77029 15.8431 2.76931 15.1892 2.76918 14.5353C2.76908 14.1454 2.76851 13.7555 2.76676 13.3656C2.76514 12.9983 2.76494 12.6311 2.7658 12.2638C2.76591 12.0663 2.76457 11.8689 2.76318 11.6714C2.77018 10.1284 3.23606 8.7708 4.31592 7.64202C5.31295 6.73749 6.49253 6.2349 7.83002 6.23633ZM5.63275 9.4727C5.21791 10.1623 4.93788 10.7729 4.93544 11.5798C4.93488 11.6907 4.93433 11.8016 4.93375 11.9158C4.93364 12.037 4.93353 12.1583 4.93342 12.2832C4.93294 12.4113 4.93245 12.5393 4.93195 12.6712C4.93067 13.0223 4.93004 13.3734 4.92961 13.7245C4.92932 13.9442 4.92892 14.1639 4.92848 14.3835C4.92715 15.0717 4.9262 15.7599 4.92583 16.448C4.92539 17.2408 4.92368 18.0334 4.92085 18.8261C4.91873 19.4399 4.91775 20.0536 4.91762 20.6674C4.91752 21.0334 4.91695 21.3995 4.9152 21.7655C4.91358 22.1103 4.91338 22.4552 4.91423 22.8C4.91434 22.9855 4.91301 23.171 4.91162 23.3564C4.91723 24.5172 5.15021 25.3658 5.94403 26.233C6.74846 27.0149 7.73554 27.0686 8.79742 27.0928C9.2507 27.1109 9.56093 27.1491 9.92963 27.4414C10.0841 27.7505 10.0509 28.0851 10.0582 28.4249C10.0602 28.5026 10.0622 28.5804 10.0643 28.6605C10.0707 28.9093 10.0765 29.158 10.0822 29.4068C10.0864 29.5753 10.0907 29.7437 10.095 29.9122C10.1055 30.3256 10.1153 30.739 10.1249 31.1524C10.475 30.8088 10.7664 30.469 11.0466 30.066C11.131 29.946 11.2156 29.8261 11.3002 29.7062C11.346 29.6414 11.3917 29.5766 11.4388 29.5098C11.726 29.1049 12.0174 28.7031 12.31 28.302C12.3971 28.1811 12.3971 28.1811 12.486 28.0577C12.5415 27.9818 12.5969 27.906 12.6541 27.8279C12.7031 27.7604 12.7521 27.6929 12.8026 27.6233C13.0536 27.3276 13.2349 27.1641 13.6281 27.1095C13.7366 27.1085 13.845 27.1074 13.9567 27.1063C14.0799 27.1043 14.203 27.1024 14.3299 27.1004C14.4638 27.0997 14.5977 27.0991 14.7316 27.0985C14.8689 27.0969 15.0063 27.0951 15.1437 27.0932C15.5046 27.0886 15.8655 27.0856 16.2264 27.0831C16.595 27.0802 16.9635 27.0756 17.332 27.0712C18.0547 27.0628 18.7773 27.0563 19.4999 27.0508C19.5005 26.9955 19.5011 26.9402 19.5017 26.8831C19.508 26.3032 19.5162 25.7234 19.5256 25.1435C19.5288 24.9275 19.5315 24.7116 19.5338 24.4956C19.5371 24.1839 19.5422 23.8721 19.5476 23.5604C19.5486 23.4173 19.5486 23.4173 19.5495 23.2714C19.563 22.6312 19.6792 22.0873 19.8906 21.4844C19.9872 21.1944 19.9872 21.1944 20.0859 20.8985C18.3456 20.8985 16.6054 20.8985 14.8124 20.8985C14.3152 21.893 13.8343 22.8766 13.3979 23.8963C13.3587 23.9852 13.3194 24.0741 13.2789 24.1658C13.2281 24.2836 13.2281 24.2836 13.1762 24.4037C13.0356 24.6417 12.8979 24.7576 12.664 24.9024C12.2296 24.9797 11.8253 24.9797 11.4372 24.762C11.224 24.3819 11.1611 24.0617 11.1992 23.6329C11.383 23.091 11.6326 22.5842 11.8828 22.0704C11.9549 21.9182 12.0268 21.7659 12.0985 21.6135C12.2462 21.2999 12.3949 20.9867 12.5442 20.6738C12.8395 20.053 13.1226 19.4268 13.4053 18.8002C13.5545 18.4698 13.7045 18.1398 13.8546 17.8097C13.8846 17.7437 13.9146 17.6777 13.9455 17.6097C14.1756 17.1036 14.4067 16.5979 14.6381 16.0923C14.6724 16.0174 14.7067 15.9425 14.742 15.8653C14.9113 15.4954 15.0808 15.1256 15.2507 14.7561C15.5214 14.1662 15.7909 13.5766 16.0438 12.9788C16.0793 12.8956 16.1147 12.8123 16.1512 12.7266C16.2119 12.5827 16.2714 12.4382 16.3291 12.2931C16.4987 11.891 16.6549 11.6965 17.0585 11.5235C17.2599 11.4811 17.2599 11.4811 17.4492 11.4808C17.5116 11.4789 17.574 11.477 17.6384 11.475C17.941 11.5478 18.1 11.7041 18.3281 11.9141C18.4932 12.2 18.4932 12.2 18.6412 12.537C18.6689 12.5988 18.6965 12.6605 18.7249 12.7242C18.8156 12.9277 18.9044 13.1319 18.9933 13.3362C19.0566 13.4789 19.12 13.6216 19.1836 13.7642C19.3176 14.065 19.4511 14.3662 19.5843 14.6675C19.8983 15.376 20.2213 16.0805 20.5442 16.7851C20.6458 17.007 20.7471 17.2291 20.8484 17.4512C20.9111 17.5885 20.9738 17.7258 21.0365 17.8631C21.0645 17.9246 21.0925 17.9862 21.1214 18.0495C21.2896 18.4172 21.4656 18.78 21.6484 19.1407C21.7332 19.1006 21.8181 19.0606 21.9055 19.0194C22.018 18.9667 22.1306 18.9141 22.2465 18.8599C22.4131 18.7817 22.4131 18.7817 22.583 18.702C23.5563 18.2741 24.4435 18.2451 25.4932 18.2309C25.6803 18.2278 25.6803 18.2278 25.8712 18.2247C26.2008 18.2194 26.5304 18.2145 26.86 18.2098C27.1972 18.2049 27.5343 18.1994 27.8715 18.194C28.5315 18.1836 29.1915 18.1737 29.8515 18.1641C29.8606 17.226 29.8675 16.2879 29.8717 15.3498C29.8738 14.9141 29.8765 14.4785 29.881 14.0428C29.8852 13.6217 29.8876 13.2007 29.8886 12.7796C29.8893 12.6196 29.8907 12.4596 29.8928 12.2996C29.9086 11.0604 29.7851 10.1123 28.9035 9.17782C28.2287 8.5949 27.4945 8.3839 26.6214 8.38411C26.5401 8.38375 26.4588 8.38339 26.375 8.38302C26.1015 8.38194 25.8281 8.38156 25.5546 8.38119C25.3589 8.38058 25.1632 8.37993 24.9675 8.37925C24.3239 8.37719 23.6802 8.37618 23.0365 8.37521C22.8149 8.37481 22.5934 8.37441 22.3718 8.374C21.3305 8.37214 20.2892 8.37075 19.2479 8.36994C18.0463 8.36898 16.8447 8.36642 15.6431 8.36247C14.7142 8.35952 13.7853 8.35808 12.8564 8.35775C12.3018 8.35752 11.7471 8.35665 11.1924 8.35419C10.6702 8.35192 10.148 8.35151 9.62577 8.35251C9.43453 8.35256 9.24329 8.35194 9.05205 8.3506C7.732 8.34185 6.54248 8.37595 5.63275 9.4727ZM17.3515 15.2344C17.1287 15.7193 16.9062 16.2043 16.6839 16.6894C16.6082 16.8545 16.5324 17.0196 16.4566 17.1847C16.3478 17.4214 16.2393 17.6583 16.1308 17.8952C16.0795 18.0066 16.0795 18.0066 16.0272 18.1202C15.8623 18.4237 15.8623 18.4237 15.789 18.75C16.8525 18.75 17.916 18.75 19.0117 18.75C18.7563 17.984 18.4649 17.2819 18.1266 16.5528C18.0737 16.4365 18.0208 16.3201 17.9662 16.2003C17.9153 16.09 17.8644 15.9797 17.8119 15.8661C17.7657 15.7659 17.7195 15.6656 17.6719 15.5623C17.5685 15.3196 17.5685 15.3196 17.3515 15.2344ZM22.3087 21.4692C21.8276 22.058 21.6372 22.6581 21.634 23.411C21.6333 23.5252 21.6326 23.6394 21.6319 23.757C21.6316 23.8819 21.6314 24.0068 21.6311 24.1355C21.6305 24.2687 21.6298 24.4018 21.6291 24.535C21.6271 24.972 21.6261 25.4091 21.6251 25.8461C21.6247 25.9969 21.6243 26.1477 21.6239 26.2984C21.622 27.0071 21.6207 27.7157 21.6198 28.4243C21.6189 29.2406 21.6163 30.057 21.6124 30.8733C21.6094 31.5053 21.608 32.1373 21.6077 32.7693C21.6074 33.1463 21.6066 33.5232 21.6041 33.9002C21.6018 34.2553 21.6014 34.6104 21.6024 34.9655C21.6025 35.1565 21.6006 35.3476 21.5987 35.5387C21.6047 36.5699 21.8257 37.3535 22.541 38.11C23.5294 39.0423 24.5877 39.0776 25.8884 39.0717C26.1386 39.0715 26.3888 39.0712 26.639 39.071C26.7723 39.0707 26.9057 39.0704 27.0391 39.0701C27.4532 39.0692 27.8674 39.0698 28.2816 39.0706C28.3517 39.0708 28.4218 39.0709 28.494 39.0711C28.6372 39.0714 28.7805 39.0717 28.9237 39.072C29.8871 39.0741 30.8504 39.0754 31.8138 39.0723C32.4649 39.0702 33.116 39.0705 33.7671 39.0736C34.1111 39.0751 34.455 39.0755 34.7991 39.0728C35.1829 39.0699 35.5666 39.0723 35.9504 39.0752C36.0634 39.0735 36.1764 39.0718 36.2928 39.07C36.9664 39.0804 37.326 39.1844 37.8017 39.6708C37.8529 39.7279 37.9042 39.785 37.957 39.8438C38.0294 39.9125 38.1017 39.9812 38.1763 40.052C38.2333 40.1095 38.2902 40.167 38.3489 40.2262C38.4481 40.3258 38.4481 40.3258 38.5492 40.4275C38.6175 40.4966 38.6858 40.5657 38.7561 40.6369C38.8647 40.746 38.8647 40.746 38.9754 40.8573C39.2038 41.0868 39.4319 41.3167 39.6599 41.5467C39.9626 41.852 40.2656 42.157 40.5689 42.4618C40.6386 42.5323 40.7082 42.6028 40.78 42.6754C40.844 42.7397 40.9079 42.8039 40.9738 42.8702C41.0302 42.9271 41.0866 42.984 41.1447 43.0426C41.2593 43.1751 41.2593 43.1751 41.3749 43.1641C41.3753 43.0602 41.3757 42.9562 41.3762 42.8491C41.3783 42.4623 41.3836 42.0756 41.3898 41.6889C41.3921 41.5217 41.3935 41.3545 41.394 41.1874C41.3949 40.9465 41.399 40.706 41.4035 40.4652C41.4032 40.3908 41.4028 40.3164 41.4024 40.2398C41.4128 39.8583 41.4594 39.6662 41.6899 39.3577C41.9793 39.1468 42.1069 39.0983 42.4587 39.0904C42.5525 39.0862 42.6464 39.0821 42.7431 39.0778C42.8414 39.0748 42.9398 39.0718 43.0412 39.0686C44.2015 38.9985 44.9947 38.8169 45.8244 37.9456C46.3613 37.2829 46.5619 36.6222 46.5644 35.7718C46.565 35.6608 46.5655 35.5498 46.5661 35.4354C46.5662 35.3145 46.5663 35.1936 46.5665 35.0691C46.5669 34.941 46.5674 34.813 46.5679 34.681C46.5692 34.3303 46.5698 33.9796 46.5703 33.6289C46.5706 33.4095 46.571 33.19 46.5714 32.9706C46.5727 32.2829 46.5737 31.5953 46.574 30.9076C46.5745 30.1157 46.5762 29.3239 46.579 28.532C46.5811 27.9187 46.5821 27.3054 46.5823 26.692C46.5824 26.3263 46.5829 25.9606 46.5847 25.5949C46.5866 25.1863 46.5862 24.7778 46.5855 24.3692C46.5869 24.1893 46.5869 24.1893 46.5883 24.0058C46.5831 22.9331 46.4073 22.0949 45.6718 21.2891C44.8254 20.4615 43.883 20.297 42.7322 20.2995C42.6553 20.2993 42.5785 20.299 42.4993 20.2988C42.2432 20.2982 41.9872 20.2983 41.7311 20.2984C41.5469 20.2981 41.3627 20.2977 41.1785 20.2974C40.6791 20.2965 40.1797 20.2963 39.6803 20.2962C39.3681 20.2961 39.0558 20.2959 38.7435 20.2957C37.6533 20.2948 36.5631 20.2944 35.4729 20.2944C34.4579 20.2945 33.4429 20.2935 32.4279 20.2919C31.5554 20.2907 30.6829 20.2901 29.8104 20.2902C29.2898 20.2902 28.7692 20.2899 28.2486 20.2889C27.7588 20.288 27.2689 20.288 26.7791 20.2887C26.5998 20.2888 26.4205 20.2885 26.2413 20.2879C24.7155 20.2832 23.4154 20.3037 22.3087 21.4692Z" fill="#1B1725"/>
<path d="M34.1911 22.8577C34.2635 22.8629 34.3359 22.868 34.4105 22.8734C34.7775 22.9965 34.9036 23.1133 35.125 23.4376C35.1853 23.8723 35.1708 24.2998 35.1555 24.7376C35.1533 24.8565 35.1511 24.9754 35.1488 25.0979C35.1431 25.3909 35.135 25.6837 35.125 25.9766C35.2074 25.9753 35.2074 25.9753 35.2916 25.974C35.865 25.9653 36.4385 25.9594 37.012 25.9552C37.2259 25.9532 37.4398 25.9505 37.6537 25.9471C37.9616 25.9424 38.2694 25.9402 38.5773 25.9385C38.6725 25.9365 38.7677 25.9344 38.8659 25.9324C39.4416 25.9322 39.7633 25.986 40.2031 26.3672C40.4488 26.7188 40.4192 27.012 40.3576 27.4224C40.26 27.7904 40.1352 27.925 39.8125 28.1251C39.4505 28.1637 39.1006 28.1536 38.7382 28.1251C38.7357 28.1797 38.7332 28.2343 38.7306 28.2906C38.6018 30.1116 37.7925 31.6871 36.6875 33.1055C36.5891 33.2413 36.4913 33.3775 36.3945 33.5145C36.33 33.6051 36.2656 33.6957 36.1992 33.7891C37.0988 34.0554 37.9432 34.2315 38.879 34.2984C39.33 34.3979 39.4938 34.5318 39.8125 34.8633C39.9363 35.1575 39.9441 35.426 39.9101 35.7422C39.7122 36.1454 39.5425 36.3573 39.1289 36.5235C37.6107 36.7168 35.754 36.2221 34.462 35.4222C34.1421 35.3176 33.9669 35.4198 33.6601 35.5469C33.5502 35.5921 33.4403 35.6373 33.3271 35.6839C33.2094 35.7333 33.0917 35.7828 32.9704 35.8338C31.7646 36.327 30.3819 36.6717 29.0703 36.5235C28.6884 36.3292 28.5257 36.1948 28.289 35.8399C28.2196 35.4089 28.2358 35.0611 28.4416 34.6741C28.9276 34.2629 29.5694 34.243 30.1811 34.1858C30.7915 34.1225 31.3288 34.0185 31.9023 33.7891C31.9023 33.4672 31.6643 33.3046 31.4568 33.0689C30.7668 32.2669 30.0684 31.377 30.1445 30.2735C30.3058 29.9279 30.4097 29.8037 30.7304 29.5899C31.1701 29.5258 31.572 29.5254 31.9756 29.7181C32.2474 30.0428 32.4232 30.3909 32.6176 30.766C32.9704 31.3885 33.4425 31.9239 33.9531 32.4219C34.9313 32.1118 35.4562 30.9634 35.9234 30.1133C36.1023 29.733 36.2032 29.3339 36.308 28.9285C36.3258 28.8606 36.3436 28.7926 36.362 28.7226C36.4057 28.5561 36.4489 28.3894 36.4922 28.2227C36.3917 28.2226 36.2912 28.2224 36.1877 28.2223C35.2408 28.2207 34.2939 28.2165 33.347 28.2098C32.8602 28.2065 32.3734 28.204 31.8865 28.2036C31.4167 28.2032 30.9469 28.2004 30.4771 28.196C30.2978 28.1947 30.1186 28.1943 29.9394 28.1948C29.6883 28.1952 29.4373 28.1927 29.1862 28.1894C29.1121 28.1903 29.0381 28.1911 28.9618 28.192C28.572 28.1836 28.4043 28.1395 28.0987 27.8891C27.8166 27.5337 27.7671 27.3177 27.7729 26.859C27.817 26.544 27.9648 26.3859 28.1914 26.1719C28.4813 25.997 28.6929 25.9526 29.0297 25.9544C29.1177 25.9545 29.2057 25.9545 29.2963 25.9545C29.4374 25.956 29.4374 25.956 29.5814 25.9575C29.7269 25.958 29.7269 25.958 29.8754 25.9584C30.1848 25.9595 30.4942 25.9619 30.8037 25.9644C31.0136 25.9654 31.2235 25.9663 31.4335 25.9671C31.9478 25.9692 32.4622 25.9725 32.9765 25.9766C32.9745 25.9087 32.9724 25.8408 32.9703 25.7708C32.9622 25.461 32.9571 25.1512 32.9521 24.8414C32.9472 24.681 32.9472 24.681 32.9422 24.5175C32.9347 23.9018 32.9331 23.5038 33.3672 23.0469C33.6473 22.8511 33.8542 22.8256 34.1911 22.8577Z" fill="#1B1725"/>
</svg>
