<svg width="51" height="50" viewBox="0 0 51 50" fill="none" xmlns="http://www.w3.org/2000/svg">
<path d="M34 2.5H22L21.5 23L28 19L34 23V2.5Z" fill="#FFEB53" stroke="#1B1725"/>
<path d="M10.5 2H21V23.5L28 19L34 23.5L34.5 2H44.5V37.5H10.5L7 40.5V28.5V5.5L10.5 2Z" fill="#787FDC" stroke="#1B1725"/>
<path d="M11 47.5L40.5 48L38 43L39 40.5L41.5 37.5H11.5L9.5 38.5L7 42L8 45.5L11 47.5Z" fill="white" stroke="#1B1725"/>
<path d="M21.5833 2.08325V22.9166L27.8333 18.7499L34.0833 22.9166V2.08325M12.2083 37.4999C10.827 37.4999 9.50224 38.0487 8.52549 39.0254C7.54873 40.0022 7 41.3269 7 42.7083M7 42.7083C7 44.0896 7.54873 45.4143 8.52549 46.3911C9.50224 47.3679 10.827 47.9166 12.2083 47.9166H46.5833M7 42.7083V7.29159C7 5.91025 7.54873 4.58549 8.52549 3.60874C9.50224 2.63199 10.827 2.08325 12.2083 2.08325H44.5V37.5145H12.1917M43.4583 37.4999C42.077 37.4999 40.7522 38.0487 39.7755 39.0254C38.7987 40.0022 38.25 41.3269 38.25 42.7083C38.25 44.0896 38.7987 45.4143 39.7755 46.3911C40.7522 47.3679 42.077 47.9166 43.4583 47.9166" stroke="#1B1725" stroke-width="2"/>
</svg>
