<svg width="51" height="50" viewBox="0 0 51 50" fill="none" xmlns="http://www.w3.org/2000/svg">
<path d="M46.0833 4.16663H32.5417L28.375 14.8959C33.0223 15.8392 36.9206 18.8452 39.0728 22.9166L46.0833 4.16663Z" fill="white" stroke="#1B1725" stroke-width="2" stroke-linecap="round" stroke-linejoin="round"/>
<path d="M17.9584 4.16663H4.41675L11.4273 22.9166C13.5795 18.8452 17.4778 15.8392 22.1251 14.8959L17.9584 4.16663Z" fill="white" stroke="#1B1725" stroke-width="2" stroke-linecap="round" stroke-linejoin="round"/>
<path d="M40.875 30.2083C40.875 38.8377 33.8795 45.8333 25.25 45.8333C16.6205 45.8333 9.625 38.8377 9.625 30.2083C9.625 27.5747 10.2765 25.0934 11.4272 22.9166C13.5794 18.8451 17.4777 15.8392 22.125 14.8959C23.1347 14.6909 24.1798 14.5833 25.25 14.5833C26.3202 14.5833 27.3653 14.6909 28.375 14.8959C33.0223 15.8392 36.9206 18.8451 39.0728 22.9166C40.2234 25.0934 40.875 27.5747 40.875 30.2083Z" fill="#FFEB53" stroke="#1B1725" stroke-width="2" stroke-linecap="round" stroke-linejoin="round"/>
<path d="M25.2502 36.4583V22.9166L22.1252 23.9583M25.2502 36.4583H29.4168M25.2502 36.4583H21.0835" stroke="#1B1725" stroke-width="2" stroke-linecap="round" stroke-linejoin="round"/>
</svg>
