<svg width="51" height="50" viewBox="0 0 51 50" fill="none" xmlns="http://www.w3.org/2000/svg">
<path d="M23 9.5L24.5 11L29 9.5L33 9L37.5 11L40.5 14L42.5 18L41.5 23L40.5 26.5L43.5 35L42.5 38L39 40L31.5 37.5L21.5 30.5L15 22L11.5 14L12 10L14.5 8H18.5L23 9.5Z" fill="#787FDC"/>
<path d="M39.6708 25.3125C43.0104 30.7771 43.9875 35.7291 41.7125 38.0021C38.3167 41.3979 28.9667 37.5562 20.8312 29.4187C12.6958 21.2854 8.85207 11.9375 12.2479 8.54164C14.5229 6.26664 19.4729 7.24164 24.9396 10.5833" stroke="#1B1725" stroke-width="2"/>
<path d="M24.1767 11.3436C26.0246 9.49702 28.53 8.45972 31.1424 8.45972C33.7547 8.45972 36.2602 9.49702 38.108 11.3436L38.908 12.1415C40.7552 13.9894 41.7929 16.4953 41.7929 19.1082C41.7929 21.7211 40.7552 24.227 38.908 26.0749C38.6455 26.3353 38.3101 26.5124 37.9476 26.4457C36.9142 26.2582 34.3684 25.279 29.6684 20.5811C24.9705 15.8811 23.9892 13.3374 23.8038 12.3019C23.7413 11.9394 23.9142 11.604 24.1767 11.3436Z" stroke="#1B1725" stroke-width="2"/>
<path d="M23.7769 26.4731C24.5905 27.2867 25.9095 27.2867 26.7231 26.4731C27.5367 25.6595 27.5367 24.3404 26.7231 23.5268C25.9095 22.7133 24.5905 22.7133 23.7769 23.5268C22.9633 24.3404 22.9633 25.6595 23.7769 26.4731Z" fill="#1B1725"/>
<path d="M17.8828 17.6335C18.6964 18.4471 20.0155 18.4471 20.8291 17.6335C21.6427 16.8199 21.6427 15.5008 20.8291 14.6873C20.0155 13.8737 18.6964 13.8737 17.8828 14.6873C17.0692 15.5008 17.0692 16.8199 17.8828 17.6335Z" fill="#1B1725"/>
<path d="M32.6162 32.3647C33.4298 33.1783 34.7489 33.1783 35.5625 32.3647C36.3761 31.5511 36.3761 30.232 35.5625 29.4185C34.7489 28.6049 33.4298 28.6049 32.6162 29.4185C31.8026 30.232 31.8026 31.5511 32.6162 32.3647Z" fill="#1B1725"/>
<path d="M7.82484 42.425L16.4103 33.8375M21.0832 45.8333L26.7228 41.2042M4.4165 29.1667L9.04567 23.5271" stroke="#1B1725" stroke-width="2" stroke-linecap="round"/>
</svg>
