<svg width="234" height="75" viewBox="0 0 234 75" fill="none" xmlns="http://www.w3.org/2000/svg">
<path d="M0 35.6221H30.1793V41.3026H7.11941V51.2872H29.6663V57.0303H7.11941V73.4963H0V35.6346V35.6221Z" fill="#1B1725"/>
<path d="M36.598 35.6221H43.7174V73.4838H36.598V35.6221Z" fill="#1B1725"/>
<path d="M48.935 66.427C48.935 61.6598 52.038 58.9071 60.8716 57.8186C64.8254 57.3056 67.8158 56.7802 67.8158 54.1526C67.8158 52.0881 66.2643 50.5366 62.7109 50.5366C58.5193 50.5366 57.2556 53.0641 57.3181 55.2412H50.2613C49.9735 51.2873 53.8147 45.9446 62.4231 45.9446C72.633 45.9446 74.8727 51.2748 74.8727 55.6415V73.4838H67.8158V69.4048C67.2403 71.6946 64.0246 74.172 58.5193 74.172C52.3758 74.172 48.935 71.069 48.935 66.427ZM67.9159 62.6359V59.0823C67.4029 60.0583 65.6262 60.8091 61.4346 61.4972C58.219 62.0102 55.8167 63.0988 55.8167 66.0266C55.8167 68.3789 57.3056 69.8678 60.6964 69.8678C64.938 69.8678 67.9284 67.0527 67.9284 62.6359H67.9159Z" fill="#1B1725"/>
<path d="M106.191 51.8504C107.967 48.5847 111.12 46.0573 115.887 46.0573C125.697 46.0573 127.999 52.1382 127.999 57.4808V73.4838H120.83V57.4808C120.83 53.5771 119.103 51.1121 115.037 51.1121C111.308 51.1121 107.229 53.3518 107.229 59.3201V73.4963H100.06V57.4934C100.06 53.5896 98.3955 51.1246 94.8421 51.1246C91.2886 51.1246 87.0345 53.3643 87.0345 59.3326V73.5088H79.9151V46.4325H87.0345V51.5376C88.0104 48.0967 91.8517 46.0821 95.6929 46.0821C101.711 46.0821 104.814 48.6597 106.191 51.8753V51.8504Z" fill="#1B1725"/>
<path d="M132.866 35.6221H139.986V47.9589L139.585 52.2006C140.962 48.0716 143.952 45.7693 149.458 45.7693C157.953 45.7693 163.571 52.0255 163.571 59.8206C163.571 67.6157 157.953 73.9968 149.458 73.9968C143.952 73.9968 141.087 71.8698 139.698 68.0911L139.986 71.069V73.4837H132.929L132.866 35.6221ZM156.101 59.8331C156.101 54.6155 153.174 50.8869 148.181 50.8869C143.189 50.8869 139.523 54.1026 139.523 59.8331C139.523 65.5637 143.026 68.9044 148.181 68.9044C153.336 68.9044 156.101 65.1132 156.101 59.8331Z" fill="#1B1725"/>
<path d="M195.164 46.4075H202.159L206.751 65.1132L211.28 46.4075H217.424L222.015 65.1632L226.545 46.4075H233.539L225.794 73.4838H218.112L214.383 55.8166L210.592 73.4838H202.847L195.164 46.4075Z" fill="#1B1725"/>
<path d="M185.568 74.6976C182.477 74.6976 179.549 73.9092 176.959 72.3702C173.994 72.6455 170.778 72.4203 167.4 71.6571C161.419 70.3183 157.165 66.7648 155.438 61.6599C153.049 54.603 155.701 45.7695 162.708 37.4239C165.398 34.2208 168.313 31.4806 171.141 28.828C176.384 23.9108 180.901 19.6691 180.901 15.0271C180.901 11.6738 178.586 7.88265 173.831 3.44084L177.059 0C182.903 5.46781 185.618 10.2349 185.618 15.0271C185.618 21.7086 180.15 26.8385 174.369 32.2813C171.642 34.8338 168.826 37.4863 166.324 40.4642C160.481 47.421 158.091 54.7781 159.905 60.1583C161.106 63.6993 164.047 66.0891 168.426 67.0651C169.54 67.3153 170.628 67.4906 171.679 67.6157C167.613 62.248 166.424 55.116 168.826 49.8609C170.828 45.4691 174.97 43.0543 180.5 43.0543C186.031 43.0543 190.785 45.5817 192.925 49.9985C195.214 54.7281 194.326 60.7715 190.673 65.3885C189.159 67.3028 187.307 68.8419 185.18 69.993C186.594 70.0305 188.145 69.8554 189.872 69.3424C197.429 67.1152 201.421 62.5982 201.408 56.2671C201.383 47.5461 193.538 37.0234 185.255 34.6336L186.569 30.1042C196.966 33.1071 206.1 45.3314 206.125 56.2546C206.125 61.1968 204.211 70.043 191.198 73.8717C189.296 74.4348 187.407 74.71 185.593 74.71L185.568 74.6976ZM180.488 47.7714C176.822 47.7714 174.332 49.1352 173.106 51.8128C171.354 55.6666 172.618 61.5597 176.058 65.5261C176.571 66.1267 177.26 66.8024 178.098 67.453C181.789 66.7899 184.842 65.1007 186.944 62.4482C189.446 59.2951 190.135 55.1035 188.646 52.0505C187.307 49.2978 184.404 47.7714 180.475 47.7714H180.488Z" fill="#787FDC"/>
</svg>
