<svg width="51" height="50" viewBox="0 0 51 50" fill="none" xmlns="http://www.w3.org/2000/svg">
<path fill-rule="evenodd" clip-rule="evenodd" d="M25.25 42.7083C35.6053 42.7083 44 34.0395 44 28.125C44 22.2104 35.6053 13.5416 25.25 13.5416C14.8947 13.5416 6.5 22.2164 6.5 28.125C6.5 34.0335 14.8947 42.7083 25.25 42.7083Z" fill="white" stroke="black" stroke-width="2" stroke-linejoin="round"/>
<path d="M25.25 34.375C28.7018 34.375 31.5 31.5768 31.5 28.125C31.5 24.6732 28.7018 21.875 25.25 21.875C21.7982 21.875 19 24.6732 19 28.125C19 31.5768 21.7982 34.375 25.25 34.375Z" fill="#787FDC" stroke="#1B1725" stroke-width="2" stroke-linejoin="round"/>
<path d="M14.0664 11.7355L16.769 15.5065" stroke="black" stroke-width="2" stroke-linecap="round"/>
<path d="M6.25 18L9.25 21" stroke="black" stroke-width="2" stroke-linecap="round"/>
<path d="M44.25 18L41.25 21" stroke="black" stroke-width="2" stroke-linecap="round"/>
<path d="M37.3593 12.1982L34.6566 15.9694" stroke="black" stroke-width="2" stroke-linecap="round"/>
<path d="M25.2592 7.29163V13.5416" stroke="black" stroke-width="2" stroke-linecap="round"/>
</svg>
