<svg width="51" height="50" viewBox="0 0 51 50" fill="none" xmlns="http://www.w3.org/2000/svg">
<g clip-path="url(#clip0_769_424)">
<path d="M20.6411 13.4888H1.75V44.2888H20.6411L21.3539 46H30.3836L31.3342 44.2888H49.75V13L20.6411 13.4888Z" fill="#787FDC"/>
<path d="M30.3992 46H21.3392L20.4936 45.4602L20.0169 44.381H1.66954L0.75 43.492V14.3515L1.66954 13.4624H20.6165L49.8154 13L50.75 13.8889V43.4921L49.8305 44.3811H31.8874L31.1983 45.551L30.3992 46ZM21.9463 44.2219H29.8648L30.5538 43.052L31.3529 42.603H48.9109V14.7926L20.624 15.2405H2.58908V42.603H20.624L21.4696 43.1428L21.9463 44.2219Z" fill="#1B1725"/>
<path d="M45.75 10.6925C45.75 10.6925 29.6735 7.64983 26.4184 14.3202L24.75 42H28.5746L28.9276 39.7013H45.75V10.6925Z" fill="white"/>
<path d="M28.2079 43H24.4601L23.75 42.2017L25.3848 13.2303L25.4545 12.9471C26.2686 11.1652 27.8567 9.84467 30.1745 9.02224C31.9473 8.39312 34.1599 8.05102 36.7511 8.0053C41.1115 7.92883 45.0083 8.70516 45.172 8.73823L45.75 9.47817V39.8407L45.0386 40.594H29.165L28.9112 42.36L28.2079 43ZM25.2152 41.4933H27.5967L27.8505 39.7274L28.5537 39.0874H44.3273V10.1138C43.0866 9.90313 40.0163 9.45225 36.7539 9.51229C30.1223 9.63366 27.6729 11.7042 26.7962 13.4752L25.2152 41.4933Z" fill="#1B1725"/>
<path d="M5.75 10H23.75V39H5.75V10Z" fill="white"/>
<path d="M23.9958 40H5.50417L4.75 39.2908V10.7092L5.50417 10H23.9958L24.75 10.7092V39.2908L23.9958 40ZM6.25834 38.5817H23.2417V11.4183H6.25834V38.5817Z" fill="#1B1725"/>
<path d="M9.75 5C9.75 5 20.6415 6.62604 24.6567 10.8624C26.7935 13.1169 26.7499 16.1807 26.7499 16.1807V39.1618C26.7499 40.0767 26.2727 40.9348 25.4693 41.4644L24.6567 42C24.6567 42 24.6659 40.0675 22.477 38.7675C20.2881 37.4676 9.75 33.9385 9.75 33.9385V5Z" fill="white"/>
<path d="M24.3086 43L23.1181 42.3967C23.1172 42.3386 23.0748 40.8022 21.3637 39.7288C19.7514 38.7173 12.733 36.1177 9.2471 34.8845L8.75 34.1918V4.72725L9.62342 4C10.063 4.06925 20.4349 5.74909 24.4379 10.2105C26.637 12.6613 26.6444 15.9058 26.6426 16.1148V39.5101C26.6426 40.6778 26.0629 41.7786 25.0918 42.4547L24.3086 43ZM10.2568 33.6761C12.3528 34.4258 20.2709 37.2926 22.1775 38.4887C23.4752 39.3028 24.085 40.336 24.3714 41.137C24.6111 40.9356 24.8035 40.686 24.9354 40.4052C25.0673 40.1245 25.1356 39.8191 25.1357 39.5101L25.1358 16.1015C25.1361 16.0746 25.1403 13.2272 23.3053 11.1821C20.2881 7.81945 12.8136 6.11301 10.2569 5.61362L10.2568 33.6761ZM33.4258 14.6385H42.75V16.694H33.4258V14.6385ZM33.4258 19.5015H42.75V21.557H33.4258V19.5015ZM37.6351 32.6235H42.3463V34.6789H37.6351V32.6235Z" fill="#1B1725"/>
</g>
<defs>
<clipPath id="clip0_769_424">
<rect width="50" height="50" fill="white" transform="translate(0.75)"/>
</clipPath>
</defs>
</svg>
