<svg width="51" height="50" viewBox="0 0 51 50" fill="none" xmlns="http://www.w3.org/2000/svg">
<path d="M31.7142 42.6287H11.7267C10.3554 42.6287 9.24365 41.5169 9.24365 40.1457V3.52268C9.24365 2.15139 10.3554 1.03967 11.7267 1.03967H31.7142C33.0855 1.03967 34.1972 2.15139 34.1972 3.52268V40.1458C34.197 41.517 33.0855 42.6287 31.7142 42.6287Z" fill="#787FDC"/>
<path d="M34.197 6.49829H9.24365V37.1701H34.197V6.49829Z" fill="white"/>
<path d="M41.2564 32.7665C41.2564 31.1874 40.0802 29.9073 38.5011 29.9073C36.922 29.9073 35.7458 31.1873 35.7458 32.7665C35.7458 31.1874 34.5697 29.9073 32.9906 29.9073C31.4115 29.9073 30.2353 31.1873 30.2353 32.7665C30.2353 31.1874 29.0591 29.9073 27.48 29.9073C25.9009 29.9073 24.7248 31.1873 24.7248 32.7665V19.0631C24.7248 17.484 23.5486 16.2039 21.9695 16.2039C20.3904 16.2039 19.2142 17.4839 19.2142 19.0631V39.6542C19.2142 41.1533 19.7176 42.6089 20.6438 43.7877C21.57 44.9664 22.0734 46.4222 22.0734 47.9212V48.9602H38.3971V47.9212C38.3971 46.4221 38.9005 44.9665 39.8267 43.7877C40.7529 42.609 41.2563 41.1532 41.2563 39.6542V32.7665H41.2564Z" fill="#FFEB53"/>
<path d="M21.8136 10.4855C17.0838 10.4855 13.2358 14.3334 13.2358 19.0632C13.2358 19.6374 13.7014 20.1029 14.2756 20.1029C14.8498 20.1029 15.3153 19.6374 15.3153 19.0632C15.3153 15.4801 18.2305 12.565 21.8136 12.565C25.3967 12.565 28.3118 15.4801 28.3118 19.0632C28.3118 19.6374 28.7773 20.1029 29.3515 20.1029C29.9257 20.1029 30.3913 19.6374 30.3913 19.0632C30.3913 14.3333 26.5433 10.4855 21.8136 10.4855Z" fill="#231F20"/>
<path d="M38.5011 28.8676C37.4057 28.8676 36.4324 29.3213 35.7458 30.0601C35.5904 29.8929 35.4196 29.7413 35.2367 29.6051V3.52255C35.2367 1.58027 33.6566 0 31.7142 0H11.7266C9.78425 0 8.20398 1.58027 8.20398 3.52255V40.1457C8.20398 42.0881 9.78425 43.6684 11.7266 43.6684H19.3001C19.4598 43.9319 19.6349 44.1865 19.8262 44.43C20.6048 45.4211 21.0336 46.6609 21.0336 47.9212V48.9603C21.0336 49.5345 21.4992 50 22.0734 50H38.3971C38.9713 50 39.4368 49.5345 39.4368 48.9603V47.9212C39.4368 46.6608 39.8656 45.4211 40.6442 44.43C41.7095 43.0743 42.2961 41.3782 42.2961 39.6541V32.7664C42.2961 30.5802 40.6292 28.8676 38.5011 28.8676ZM32.9906 28.8676C31.8951 28.8676 30.9219 29.3213 30.2353 30.0601C29.5487 29.3215 28.5754 28.8676 27.48 28.8676C26.8589 28.8676 26.2771 29.0135 25.7645 29.2746V19.0631C25.7645 16.8768 24.0975 15.1642 21.9695 15.1642C19.8415 15.1642 18.1745 16.8768 18.1745 19.0631V36.1304H10.2834V7.53797H33.1573V28.8718C33.102 28.8696 33.0466 28.8676 32.9906 28.8676ZM11.7266 2.07949H31.7142C32.51 2.07949 33.1573 2.72695 33.1573 3.52265V5.45858H10.2834V3.52255C10.2834 2.72685 10.9308 2.07949 11.7266 2.07949ZM11.7266 41.589C10.9308 41.589 10.2834 40.9415 10.2834 40.1457V38.2099H18.1745V39.6543C18.1745 40.309 18.2595 40.9596 18.4227 41.5891L11.7266 41.589ZM40.2166 39.6542C40.2166 40.9146 39.7877 42.1543 39.0092 43.1453C38.828 43.3758 38.6619 43.6169 38.509 43.8656L38.25 44.5C37.75 45.5 37.75 45.5 37.75 45.5L37.6172 45.9451C37.4469 46.5874 37.3574 47.2518 37.3573 47.9206H23.1131C23.113 46.1968 22.5264 44.501 21.4613 43.1453C20.6827 42.1544 20.2539 40.9146 20.2539 39.6542V19.0631C20.2539 18.0258 20.9914 17.2436 21.9694 17.2436C22.9474 17.2436 23.6849 18.0258 23.6849 19.0631V32.7665C23.6849 33.3408 24.1504 33.8063 24.7246 33.8063C25.2989 33.8063 25.7644 33.3408 25.7644 32.7665C25.7644 31.7292 26.5019 30.947 27.4799 30.947C28.4579 30.947 29.1954 31.7292 29.1954 32.7665C29.1954 33.3408 29.661 33.8063 30.2352 33.8063C30.8094 33.8063 31.2749 33.3408 31.2749 32.7665C31.2749 31.7292 32.0124 30.947 32.9905 30.947C33.9685 30.947 34.706 31.7292 34.706 32.7665C34.706 33.3408 35.1715 33.8063 35.7457 33.8063C36.3199 33.8063 36.7855 33.3408 36.7855 32.7665C36.7855 31.7292 37.523 30.947 38.501 30.947C39.479 30.947 40.2165 31.7292 40.2165 32.7665L40.2166 39.6542Z" fill="#231F20"/>
</svg>
