<svg xmlns="http://www.w3.org/2000/svg" version="1.1" xmlns:xlink="http://www.w3.org/1999/xlink" width="1000" height="1000"><style>
    #light-icon {
      display: inline;
    }
    #dark-icon {
      display: none;
    }

    @media (prefers-color-scheme: dark) {
      #light-icon {
        display: none;
      }
      #dark-icon {
        display: inline;
      }
    }
  </style><g id="light-icon"><svg xmlns="http://www.w3.org/2000/svg" version="1.1" xmlns:xlink="http://www.w3.org/1999/xlink" width="1000" height="1000"><g><g transform="matrix(12.635835228708618,0,0,12.635835228708618,155.1680566085418,-5.684341886080802e-14)" style="filter: contrast(1) brightness(1)"><svg xmlns="http://www.w3.org/2000/svg" version="1.1" xmlns:xlink="http://www.w3.org/1999/xlink" width="54.58" height="79.14"><svg id="Calque_1" data-name="Calque 1" xmlns="http://www.w3.org/2000/svg" viewBox="0 0 54.58 79.14">
  <path d="M32.83,79.14c-3.27,0-6.37-.84-9.12-2.47-3.14.3-6.55.05-10.13-.75-6.34-1.42-10.84-5.18-12.67-10.6-2.53-7.48.28-16.84,7.7-25.68,2.85-3.39,5.94-6.29,8.93-9.1,5.55-5.21,10.34-9.71,10.34-14.62,0-3.55-2.45-7.56-7.49-12.27l3.42-3.65c6.19,5.79,9.07,10.85,9.07,15.92,0,7.08-5.79,12.52-11.92,18.27-2.89,2.71-5.87,5.51-8.53,8.67-6.18,7.36-8.72,15.16-6.79,20.86,1.27,3.75,4.39,6.28,9.03,7.32,1.18.26,2.33.46,3.45.58-4.31-5.68-5.57-13.23-3.03-18.81,2.12-4.65,6.51-7.21,12.36-7.21s10.9,2.68,13.16,7.35c2.42,5.01,1.48,11.41-2.39,16.3-1.6,2.02-3.57,3.66-5.82,4.88,1.5.04,3.15-.15,4.96-.68,8.01-2.35,12.24-7.14,12.22-13.85-.02-9.24-8.33-20.38-17.11-22.91l1.39-4.8c11.01,3.18,20.69,16.13,20.72,27.71.01,5.23-2.03,14.61-15.81,18.66-2.02.59-4.01.88-5.94.88ZM27.45,50.6c-3.89,0-6.51,1.44-7.81,4.29-1.86,4.08-.52,10.32,3.13,14.53.55.63,1.27,1.35,2.16,2.04,3.91-.7,7.14-2.49,9.37-5.3,2.65-3.35,3.38-7.77,1.81-11.02-1.41-2.92-4.49-4.53-8.66-4.53Z"></path>
</svg></svg></g></g></svg></g><g id="dark-icon"><svg xmlns="http://www.w3.org/2000/svg" version="1.1" xmlns:xlink="http://www.w3.org/1999/xlink" width="1000" height="1000"><g><g transform="matrix(12.635835228708618,0,0,12.635835228708618,155.1680566085418,-5.684341886080802e-14)"><svg xmlns="http://www.w3.org/2000/svg" version="1.1" xmlns:xlink="http://www.w3.org/1999/xlink" width="54.58" height="79.14"><svg id="Calque_1" data-name="Calque 1" xmlns="http://www.w3.org/2000/svg" viewBox="0 0 54.58 79.14">
  <defs>
    <style>
      .cls-1 {
        fill: #fff;
      }
    </style>
  </defs>
  <path class="cls-1" d="M32.83,79.14c-3.27,0-6.37-.84-9.12-2.47-3.14.3-6.55.05-10.13-.75-6.34-1.42-10.84-5.18-12.67-10.6-2.53-7.48.28-16.84,7.7-25.68,2.85-3.39,5.94-6.29,8.93-9.1,5.55-5.21,10.34-9.71,10.34-14.62,0-3.55-2.45-7.56-7.49-12.27l3.42-3.65c6.19,5.79,9.07,10.85,9.07,15.92,0,7.08-5.79,12.52-11.92,18.27-2.89,2.71-5.87,5.51-8.53,8.67-6.18,7.36-8.72,15.16-6.79,20.86,1.27,3.75,4.39,6.28,9.03,7.32,1.18.26,2.33.46,3.45.58-4.31-5.68-5.57-13.23-3.03-18.81,2.12-4.65,6.51-7.21,12.36-7.21s10.9,2.68,13.16,7.35c2.42,5.01,1.48,11.41-2.39,16.3-1.6,2.02-3.57,3.66-5.82,4.88,1.5.04,3.15-.15,4.96-.68,8.01-2.35,12.24-7.14,12.22-13.85-.02-9.24-8.33-20.38-17.11-22.91l1.39-4.8c11.01,3.18,20.69,16.13,20.72,27.71.01,5.23-2.03,14.61-15.81,18.66-2.02.59-4.01.88-5.94.88ZM27.45,50.6c-3.89,0-6.51,1.44-7.81,4.29-1.86,4.08-.52,10.32,3.13,14.53.55.63,1.27,1.35,2.16,2.04,3.91-.7,7.14-2.49,9.37-5.3,2.65-3.35,3.38-7.77,1.81-11.02-1.41-2.92-4.49-4.53-8.66-4.53Z"></path>
</svg></svg></g></g></svg></g></svg>