<svg width="51" height="50" viewBox="0 0 51 50" fill="none" xmlns="http://www.w3.org/2000/svg">
<path d="M14 30L16.5 30.5L19.5 32.5L20.5 35L20 39L17 43.5L11.5 45.5L6 44L3 40.5H5.5L7.5 38L8.5 33.5L10 31L14 30Z" fill="#787FDC"/>
<path d="M24.5 27L27.5 29.5L29.5 28.5L35.5 23L39.5 17.5L45.5 8L45 5.5L43 4.5L38 8L26.5 15.5L20.5 22.5L22 24L24.5 27Z" fill="#787FDC"/>
<path d="M14 30L16.5 30.5L19.5 32.5L20.5 35L20 39L17 43.5L11.5 45.5L6 44L3 40.5H5.5L7.5 38L8.5 33.5L10 31L14 30Z" stroke="#1B1725"/>
<path d="M24.5 27L27.5 29.5L29.5 28.5L35.5 23L39.5 17.5L45.5 8L45 5.5L43 4.5L38 8L26.5 15.5L20.5 22.5L22 24L24.5 27Z" stroke="#1B1725"/>
<path d="M17 30L20 23.5L25 26.5L27 30.5L20 33.5L17 30Z" fill="white" stroke="#1B1725"/>
<path d="M20.1042 33.5874C19.5591 32.2438 18.5639 31.1315 17.2889 30.441C16.0139 29.7504 14.5385 29.5247 13.1154 29.8024C11.6922 30.0802 10.4099 30.8441 9.48813 31.9633C8.56632 33.0826 8.06233 34.4875 8.0625 35.9375C8.0625 36.5793 7.93067 37.2144 7.67517 37.8033C7.41967 38.3921 7.04595 38.9222 6.57718 39.3607C6.1084 39.7992 5.55456 40.1368 4.94998 40.3524C4.3454 40.5681 3.70297 40.6573 3.0625 40.6145C4.0926 42.404 5.68465 43.8034 7.59151 44.5954C9.49836 45.3874 11.6133 45.5277 13.6081 44.9946C15.6029 44.4614 17.3659 43.2847 18.6234 41.647C19.8808 40.0093 20.5625 38.0022 20.5625 35.9375C20.5625 35.1062 20.4 34.3124 20.1042 33.5874ZM20.1042 33.5874C22.5813 32.7434 24.9504 31.6106 27.1625 30.2125M16.6562 30.1604C17.5005 27.678 18.6348 25.304 20.0354 23.0875M27.1604 30.2125C31.111 27.7161 34.4924 24.4169 37.0854 20.5291L45.1604 8.41662C45.4698 7.95529 45.6094 7.40088 45.5554 6.84806C45.5014 6.29525 45.2571 5.77832 44.8644 5.38556C44.4716 4.99281 43.9547 4.74858 43.4019 4.69459C42.8491 4.6406 42.2947 4.78019 41.8333 5.08953L29.7208 13.1666C25.8323 15.7594 22.5324 19.1409 20.0354 23.0916C23.2056 24.5099 25.7421 27.0465 27.1604 30.2166" stroke="#1B1725" stroke-width="2" stroke-linecap="round" stroke-linejoin="round"/>
</svg>
