<svg width="51" height="50" viewBox="0 0 51 50" fill="none" xmlns="http://www.w3.org/2000/svg">
<path d="M15.3333 27.0834C15.3333 24.3207 16.4307 21.6712 18.3842 19.7177C20.3377 17.7642 22.9872 16.6667 25.7499 16.6667C28.5126 16.6667 31.1621 17.7642 33.1156 19.7177C35.0691 21.6712 36.1666 24.3207 36.1666 27.0834V37.5001C36.1666 41.4292 36.1666 43.3917 34.9458 44.6126C33.7249 45.8334 31.7624 45.8334 27.8333 45.8334H23.6666C19.7374 45.8334 17.7749 45.8334 16.5541 44.6126C15.3333 43.3917 15.3333 41.4292 15.3333 37.5001V27.0834Z" fill="#787FDC" stroke="#1B1725" stroke-width="2" stroke-linecap="round" stroke-linejoin="round"/>
<path d="M21.5 11.5V17H30V11.5L25.5 10L21.5 11.5Z" fill="white" stroke="#1B1725"/>
<path d="M21.5833 16.6667V14.5834C21.5833 12.6188 21.5833 11.6376 22.1937 11.0272C22.8041 10.4167 23.7853 10.4167 25.7499 10.4167M25.7499 10.4167C27.7145 10.4167 28.6958 10.4167 29.3062 11.0272C29.9166 11.6376 29.9166 12.6188 29.9166 14.5834V16.6667M25.7499 10.4167V4.16675M25.7499 4.16675H21.5833M25.7499 4.16675H31.4687C33.0461 4.16715 34.565 4.76401 35.7208 5.83758L36.1666 6.25008M15.3333 27.0834H36.1666" stroke="#1B1725" stroke-width="2" stroke-linecap="round" stroke-linejoin="round"/>
</svg>
