<svg width="51" height="50" viewBox="0 0 51 50" fill="none" xmlns="http://www.w3.org/2000/svg">
<path d="M20.5623 35.7677C28.6165 35.7677 35.1457 29.2386 35.1457 21.1844C35.1457 13.1303 28.6165 6.60107 20.5623 6.60107C12.5082 6.60107 5.979 13.1303 5.979 21.1844C5.979 29.2386 12.5082 35.7677 20.5623 35.7677Z" fill="#787FDC" stroke="#1B1725" stroke-width="2" stroke-linecap="round" stroke-linejoin="round"/>
<path d="M32.5757 30.4941C36.0611 33.4389 44.0445 39.7816 44.7143 41.3744C45.384 42.9671 44.5257 44.2327 42.7684 43.7608C41.0111 43.2889 34.2632 35.5191 31.1611 32.09" fill="#787FDC"/>
<path d="M32.5757 30.4941C36.0611 33.4389 44.0445 39.7816 44.7143 41.3744C45.384 42.9671 44.5257 44.2327 42.7684 43.7608C41.0111 43.2889 34.2632 35.5191 31.1611 32.09" stroke="#1B1725" stroke-width="2" stroke-linecap="round" stroke-linejoin="round"/>
<path d="M30.0518 19.1088C30.2893 19.6206 30.4156 20.1769 30.4222 20.7411C30.4289 21.3053 30.3158 21.8644 30.0904 22.3817C28.9633 24.4244 27.6414 27.2442 25.7133 29.2181C25.1659 29.6715 24.5198 29.99 23.8269 30.1481C23.1339 30.3063 22.4136 30.2996 21.7237 30.1286C20.8146 29.9439 19.8694 30.1027 19.0706 30.5744C18.5944 30.8592 18.0624 31.0378 17.5108 31.098C16.9592 31.1582 16.4012 31.0986 15.8748 30.9233C15.3713 30.736 14.934 30.4047 14.6172 29.9708C14.3005 29.5369 14.1184 29.0194 14.0935 28.4827C14.2446 27.0483 12.7539 26.2161 11.9633 25.1911C10.9821 23.9171 11.7841 20.0348 12.3123 17.5598C12.6946 15.7671 14.8987 15.3275 16.5539 13.8411C17.8893 12.6421 20.3227 11.3119 21.7435 12.4077C22.5667 13.0952 23.5042 13.6329 24.5133 13.9963C25.4035 14.1934 26.2015 14.6843 26.7789 15.39C27.9081 16.8358 29.4446 17.615 30.0518 19.1088Z" fill="white" stroke="#1B1725" stroke-width="2" stroke-linecap="round" stroke-linejoin="round"/>
<path d="M20.4895 25.0115C22.8384 25.0115 24.7426 23.1073 24.7426 20.7584C24.7426 18.4094 22.8384 16.5052 20.4895 16.5052C18.1405 16.5052 16.2363 18.4094 16.2363 20.7584C16.2363 23.1073 18.1405 25.0115 20.4895 25.0115Z" fill="#FFEB53" stroke="#1B1725" stroke-width="2" stroke-linecap="round" stroke-linejoin="round"/>
</svg>
