<svg width="51" height="50" viewBox="0 0 51 50" fill="none" xmlns="http://www.w3.org/2000/svg">
<path d="M20.7247 49L17.778 40.483H5.57007C5.57007 35.8298 9.56921 33.4894 11.5688 32.9008L19.2514 29.681V26.7727H17.0413C14.9365 26.7727 14.1998 24.9031 14.0946 23.9683V20.2292H12.095C10.5367 20.1461 10.7441 18.8097 11.0426 18.1519L14.0428 11.6083C13.6465 11.0403 13.4343 10.3703 13.3579 9.84261C11.8845 9.21941 10.3059 7.1421 12.3055 4.12999C13.9051 1.72031 17.0413 2.01806 18.4094 2.46815C20.5984 -0.19081 23.6715 1.36025 24.9343 2.46815C28.1337 -0.68937 30.6173 2.05269 31.4593 3.81841C36.174 2.9044 36.6511 6.96901 36.3003 9.11557C38.9945 12.9378 36.3003 15.5552 34.6165 16.3862C34.6165 19.793 32.5117 22.3758 31.4593 23.2413V29.681C32.1609 30.0272 34.7007 31.1559 39.2471 32.9008C43.7935 34.6458 44.9301 38.6827 44.9301 40.483H32.6169L29.3545 49H20.7247Z" fill="#787FDC"/>
<path d="M5.57007 40.483H4.57007V41.483H5.57007V40.483ZM44.9301 40.483V41.483H45.9301V40.483H44.9301ZM39.2471 32.9008L38.8888 33.8344L39.2471 32.9008ZM31.4593 29.681H30.4593V30.3026L31.0167 30.5777L31.4593 29.681ZM31.4593 23.2413L30.8241 22.469L30.4593 22.769V23.2413H31.4593ZM34.6165 16.3862L34.174 15.4894L33.6165 15.7645V16.3862H34.6165ZM36.3003 9.11557L35.3134 8.95428L35.2475 9.35763L35.483 9.69169L36.3003 9.11557ZM31.4593 3.81841L30.5566 4.24881L30.8897 4.94744L31.6496 4.80014L31.4593 3.81841ZM24.9343 2.46815L24.2749 3.21988L24.9744 3.83359L25.6368 3.17989L24.9343 2.46815ZM18.4094 2.46815L18.0969 3.41806L18.7467 3.63183L19.1815 3.10373L18.4094 2.46815ZM12.3055 4.12999L13.1386 4.68307L12.3055 4.12999ZM13.3579 9.84261L14.3476 9.69935L14.2668 9.14128L13.7474 8.92161L13.3579 9.84261ZM18.0937 12.3354L18.9716 11.8564L18.5259 11.0397L17.6792 11.4254L18.0937 12.3354ZM24.0924 13.9972L24.7754 13.2668C24.4433 12.9563 23.9436 12.9089 23.5591 13.1514L24.0924 13.9972ZM11.0426 18.1519L10.1336 17.7351L10.1319 17.7387L11.0426 18.1519ZM12.095 20.2292L12.0417 21.2278L12.0683 21.2292H12.095V20.2292ZM14.0946 20.2292H15.0946V19.2292H14.0946V20.2292ZM14.0946 23.9683H13.0946V24.0245L13.1008 24.0802L14.0946 23.9683ZM19.2514 26.7727H20.2514V25.7727H19.2514V26.7727ZM19.2514 29.681L19.6379 30.6033L20.2514 30.3461V29.681H19.2514ZM11.5688 32.9008L11.8512 33.8601L11.9043 33.8445L11.9553 33.8231L11.5688 32.9008ZM12.8317 49V50H20.7247V49V48H12.8317V49ZM20.7247 49L21.6698 48.673L18.723 40.156L17.778 40.483L16.8329 40.81L19.7797 49.327L20.7247 49ZM20.7247 49V50H29.3545V49V48H20.7247V49ZM29.3545 49V50H37.9842V49V48H29.3545V49ZM32.6169 40.483L31.6831 40.1253L28.4206 48.6423L29.3545 49L30.2883 49.3577L33.5507 40.8407L32.6169 40.483ZM5.57007 40.483V41.483H17.778V40.483V39.483H5.57007V40.483ZM17.778 40.483V41.483H32.6169V40.483V39.483H17.778V40.483ZM32.6169 40.483V41.483H44.9301V40.483V39.483H32.6169V40.483ZM44.9301 40.483H45.9301C45.9301 38.3901 44.6405 33.8997 39.6054 31.9672L39.2471 32.9008L38.8888 33.8344C42.9464 35.3918 43.9301 38.9753 43.9301 40.483H44.9301ZM39.2471 32.9008L39.6054 31.9672C35.0677 30.2256 32.5618 29.1099 31.9018 28.7842L31.4593 29.681L31.0167 30.5777C31.76 30.9445 34.3337 32.0861 38.8888 33.8344L39.2471 32.9008ZM31.4593 29.681H32.4593V23.2413H31.4593H30.4593V29.681H31.4593ZM31.4593 23.2413L32.0945 24.0136C33.2957 23.0257 35.6165 20.1842 35.6165 16.3862H34.6165H33.6165C33.6165 19.4018 31.7276 21.7258 30.8241 22.469L31.4593 23.2413ZM34.6165 16.3862L35.059 17.2829C36.0431 16.7973 37.3458 15.7879 38.0145 14.2775C38.7201 12.684 38.6434 10.704 37.1177 8.53944L36.3003 9.11557L35.483 9.69169C36.6514 11.3494 36.5748 12.5892 36.1858 13.4678C35.76 14.4293 34.8737 15.1441 34.174 15.4894L34.6165 16.3862ZM36.3003 9.11557L37.2872 9.27685C37.4808 8.0928 37.4729 6.27588 36.6489 4.82534C36.2214 4.07285 35.5694 3.41464 34.6313 3.03252C33.7039 2.65472 32.5836 2.58184 31.2689 2.83669L31.4593 3.81841L31.6496 4.80014C32.6924 4.59798 33.3998 4.69042 33.8768 4.88475C34.3433 5.07476 34.6726 5.39548 34.9099 5.81321C35.4154 6.70311 35.4707 7.99178 35.3134 8.95428L36.3003 9.11557ZM31.4593 3.81841L32.3619 3.38802C31.8887 2.39549 30.9199 1.03415 29.4944 0.386605C28.7547 0.0505826 27.8947 -0.0896207 26.962 0.123979C26.0405 0.33501 25.1271 0.872864 24.2319 1.75641L24.9343 2.46815L25.6368 3.17989C26.3412 2.48467 26.9381 2.18122 27.4084 2.07351C27.8675 1.96837 28.2809 2.03201 28.6672 2.20753C29.4939 2.58306 30.188 3.47562 30.5566 4.24881L31.4593 3.81841ZM24.9343 2.46815L25.5938 1.71642C24.8645 1.07658 23.6136 0.300264 22.1787 0.0683842C20.6755 -0.174547 18.9868 0.193452 17.6374 1.83257L18.4094 2.46815L19.1815 3.10373C20.0211 2.08389 20.9634 1.89794 21.8596 2.04277C22.8243 2.19865 23.7413 2.75182 24.2749 3.21988L24.9343 2.46815ZM18.4094 2.46815L18.7219 1.51823C17.9155 1.25292 16.6314 1.04056 15.2982 1.23738C13.9442 1.43726 12.4694 2.07492 11.4723 3.57692L12.3055 4.12999L13.1386 4.68307C13.7412 3.77538 14.6343 3.35707 15.5903 3.21593C16.5671 3.07173 17.5353 3.23329 18.0969 3.41806L18.4094 2.46815ZM12.3055 4.12999L11.4723 3.57692C10.3388 5.28449 10.1343 6.87691 10.5819 8.20213C11.0153 9.48534 12.0083 10.3576 12.9683 10.7636L13.3579 9.84261L13.7474 8.92161C13.2341 8.70447 12.7011 8.22643 12.4767 7.56216C12.2666 6.9399 12.2726 5.9876 13.1386 4.68307L12.3055 4.12999ZM18.0937 12.3354L17.2159 12.8143C17.6567 13.6224 18.5373 14.6949 19.8059 15.2937C21.1434 15.925 22.8211 15.9811 24.6258 14.8431L24.0924 13.9972L23.5591 13.1514C22.3328 13.9245 21.3795 13.8248 20.6596 13.485C19.8707 13.1126 19.2674 12.3986 18.9716 11.8564L18.0937 12.3354ZM24.0924 13.9972L23.4095 14.7277C23.7638 15.059 24.4011 15.6061 25.1074 15.9573C25.7425 16.2731 26.9274 16.655 27.8468 15.7476L27.1444 15.0359L26.442 14.3242C26.4391 14.327 26.4476 14.319 26.4632 14.3134C26.4758 14.3089 26.4723 14.3135 26.4416 14.3124C26.3662 14.3097 26.2192 14.2765 25.9979 14.1664C25.5553 13.9464 25.0876 13.5587 24.7754 13.2668L24.0924 13.9972ZM13.3579 9.84261L12.3682 9.98586C12.462 10.6343 12.7196 11.4596 13.2228 12.1806L14.0428 11.6083L14.8629 11.0361C14.5733 10.6211 14.4065 10.1064 14.3476 9.69935L13.3579 9.84261ZM14.0428 11.6083L13.2228 12.1806C13.6719 12.8243 14.3438 13.4191 15.2883 13.6697C16.2322 13.9201 17.3117 13.7905 18.5082 13.2454L18.0937 12.3354L17.6792 11.4254C16.7839 11.8332 16.1858 11.8386 15.8012 11.7365C15.4171 11.6346 15.1095 11.3895 14.8629 11.0361L14.0428 11.6083ZM14.0428 11.6083L13.1338 11.1915L10.1336 17.7351L11.0426 18.1519L11.9516 18.5687L14.9518 12.0251L14.0428 11.6083ZM11.0426 18.1519L10.1319 17.7387C9.93884 18.1642 9.71919 18.9086 9.9018 19.6463C10.001 20.047 10.2234 20.4542 10.6286 20.7601C11.0242 21.0588 11.5124 21.1995 12.0417 21.2278L12.095 20.2292L12.1482 19.2306C12.0242 19.224 11.9435 19.2062 11.8953 19.1907C11.8714 19.1831 11.8558 19.1761 11.8466 19.1714C11.8419 19.1691 11.8387 19.1672 11.8367 19.166C11.8348 19.1647 11.8338 19.164 11.8337 19.164C11.8337 19.1639 11.8342 19.1643 11.8353 19.1653C11.8363 19.1662 11.8376 19.1675 11.8391 19.1691C11.8421 19.1725 11.8447 19.176 11.8466 19.1789C11.8505 19.1852 11.8475 19.183 11.8432 19.1658C11.8329 19.1242 11.8261 19.0385 11.848 18.9091C11.8692 18.7835 11.9105 18.6592 11.9532 18.5651L11.0426 18.1519ZM12.095 20.2292V21.2292H14.0946V20.2292V19.2292H12.095V20.2292ZM14.0946 20.2292H13.0946V23.9683H14.0946H15.0946V20.2292H14.0946ZM14.0946 23.9683L13.1008 24.0802C13.1701 24.6952 13.4356 25.5824 14.0327 26.34C14.6581 27.1337 15.6449 27.7727 17.0413 27.7727V26.7727V25.7727C16.3329 25.7727 15.8989 25.4769 15.6035 25.1021C15.2797 24.6913 15.1243 24.1763 15.0883 23.8565L14.0946 23.9683ZM17.0413 26.7727V27.7727H19.2514V26.7727V25.7727H17.0413V26.7727ZM19.2514 26.7727H18.2514V29.681H19.2514H20.2514V26.7727H19.2514ZM19.2514 29.681L18.8648 28.7587L11.1823 31.9785L11.5688 32.9008L11.9553 33.8231L19.6379 30.6033L19.2514 29.681ZM11.5688 32.9008L11.2864 31.9415C10.1476 32.2767 8.49674 33.0867 7.11516 34.4579C5.71536 35.8472 4.57007 37.8394 4.57007 40.483H5.57007H6.57007C6.57007 38.4734 7.42435 36.9689 8.52402 35.8775C9.6419 34.768 10.9904 34.1135 11.8512 33.8601L11.5688 32.9008Z" fill="#1B1725"/>
</svg>
