<svg width="51" height="50" viewBox="0 0 51 50" fill="none" xmlns="http://www.w3.org/2000/svg">
<path d="M25.75 4.16663C27.4076 4.16663 28.9973 4.82511 30.1694 5.99721C31.3415 7.16931 32 8.75902 32 10.4166C32 11.5875 31.4611 13.4208 30.3834 15.9166L28.875 18.75L32.5417 14.8062C33.5806 13.5576 34.4625 12.7208 35.1875 12.2958C35.8938 11.8863 36.6742 11.6207 37.4836 11.5142C38.2931 11.4077 39.1156 11.4624 39.9038 11.6753C40.692 11.8881 41.4303 12.2548 42.0761 12.7543C42.7219 13.2537 43.2625 13.876 43.6667 14.5854C44.4913 16.0201 44.7153 17.7227 44.2899 19.3219C43.8645 20.9211 42.8243 22.2874 41.3959 23.1229C40.6167 23.5757 39.3347 23.9472 37.55 24.2375L32 25L37 25.6791C39.0834 25.9812 40.5375 26.3812 41.3959 26.8791C42.8243 27.7146 43.8645 29.0809 44.2899 30.6801C44.7153 32.2793 44.4913 33.9819 43.6667 35.4166C43.2623 36.1258 42.7216 36.7479 42.0757 37.2472C41.4298 37.7464 40.6915 38.1129 39.9033 38.3255C39.1151 38.5382 38.2927 38.5927 37.4833 38.4861C36.674 38.3794 35.8937 38.1137 35.1875 37.7041C34.4625 37.2833 33.5806 36.4465 32.5417 35.1937L28.875 31.25L30.3834 34.0833C31.4597 36.5819 31.9986 38.4152 32 39.5833C32 41.2409 31.3415 42.8306 30.1694 44.0027C28.9973 45.1748 27.4076 45.8333 25.75 45.8333C24.0924 45.8333 22.5027 45.1748 21.3306 44.0027C20.1585 42.8306 19.5 41.2409 19.5 39.5833C19.5 38.4125 20.0389 36.5791 21.1167 34.0833L22.625 31.25L18.9584 35.1937C17.9195 36.4437 17.0375 37.2805 16.3125 37.7041C15.6063 38.1137 14.8261 38.3794 14.0167 38.4861C13.2074 38.5927 12.3849 38.5382 11.5967 38.3255C10.8086 38.1129 10.0703 37.7464 9.42436 37.2472C8.77847 36.7479 8.23775 36.1258 7.83336 35.4166C7.0088 33.9819 6.78479 32.2793 7.21015 30.6801C7.63552 29.0809 8.67578 27.7146 10.1042 26.8791C10.8834 26.4264 12.1653 26.0541 13.95 25.7625L19.5 25L14.5 24.3229C12.4167 24.0208 10.9625 23.6208 10.1042 23.1229C8.67521 22.2874 7.63455 20.9207 7.20916 19.321C6.78376 17.7213 7.00814 16.0182 7.83336 14.5833C8.23757 13.874 8.77816 13.2516 9.42398 12.7522C10.0698 12.2527 10.8081 11.886 11.5963 11.6732C12.3845 11.4604 13.207 11.4056 14.0164 11.5121C14.8259 11.6186 15.6062 11.8842 16.3125 12.2937C17.0375 12.7159 17.9195 13.5527 18.9584 14.8041L22.625 18.75C20.5417 13.975 19.5 11.1972 19.5 10.4166C19.5 8.75902 20.1585 7.16931 21.3306 5.99721C22.5027 4.82511 24.0924 4.16663 25.75 4.16663Z" fill="#787FDC" stroke="#1B1725" stroke-width="2" stroke-linecap="round" stroke-linejoin="round"/>
<path d="M19.5 25C19.5 26.6576 20.1585 28.2473 21.3306 29.4194C22.5027 30.5915 24.0924 31.25 25.75 31.25C27.4076 31.25 28.9973 30.5915 30.1694 29.4194C31.3415 28.2473 32 26.6576 32 25C32 23.3424 31.3415 21.7527 30.1694 20.5806C28.9973 19.4085 27.4076 18.75 25.75 18.75C24.0924 18.75 22.5027 19.4085 21.3306 20.5806C20.1585 21.7527 19.5 23.3424 19.5 25Z" fill="#FFEB53" stroke="#1B1725" stroke-width="2" stroke-linecap="round" stroke-linejoin="round"/>
</svg>
