<svg width="51" height="50" viewBox="0 0 51 50" fill="none" xmlns="http://www.w3.org/2000/svg">
<path d="M32.5 29.5L22.5 35.5L25.5 44.5L38.5 37.5L32.5 29.5Z" fill="#FFEB53" stroke="#1B1725"/>
<path d="M20.5 30.5L22 34.5L32.5 29L31.5 27L28.5 25.5L22.5 28.5L20.5 30.5Z" fill="white" stroke="#1B1725"/>
<path fill-rule="evenodd" clip-rule="evenodd" d="M23.231 26.6687L12.0519 5.64163C11.9876 5.52084 11.9478 5.38859 11.9347 5.25242C11.9216 5.11624 11.9355 4.97882 11.9755 4.848C12.0562 4.58379 12.2387 4.36249 12.4826 4.23278C12.7265 4.10307 13.012 4.07558 13.2762 4.15636C13.4071 4.19636 13.5287 4.26173 13.6343 4.34875C13.7398 4.43576 13.8272 4.54272 13.8915 4.66351L25.0717 25.6906L26.6571 24.8468C27.1403 24.5899 27.6694 24.4308 28.2141 24.3784C28.7588 24.326 29.3086 24.3814 29.8319 24.5415C30.3552 24.7016 30.8418 24.9632 31.264 25.3114C31.6862 25.6596 32.0357 26.0875 32.2925 26.5708L32.9675 27.8395L40.1227 38.3135L25.28 46.2052L20.5977 34.4156L19.9237 33.1468C19.6668 32.6637 19.5076 32.1347 19.4551 31.59C19.4026 31.0453 19.458 30.4956 19.618 29.9723C19.778 29.449 20.0395 28.9623 20.3876 28.5401C20.7356 28.1178 21.1635 27.7683 21.6467 27.5114L23.231 26.6687ZM22.6237 29.351L27.6342 26.6875C27.8757 26.559 28.1402 26.4794 28.4126 26.4531C28.6849 26.4269 28.9598 26.4546 29.2214 26.5346C29.4831 26.6146 29.7264 26.7453 29.9375 26.9194C30.1487 27.0934 30.3234 27.3073 30.4519 27.5489L31.1269 28.8166L22.4362 33.4375L21.7623 32.1687C21.6338 31.9271 21.5542 31.6626 21.528 31.3903C21.5017 31.1179 21.5294 30.8431 21.6094 30.5814C21.6894 30.3198 21.8201 30.0764 21.9942 29.8653C22.1682 29.6542 22.3822 29.4794 22.6237 29.351ZM23.4883 36.051L26.356 43.2729L28.2665 42.2573L26.0112 37.8666L27.8654 36.9145L30.1071 41.2791L37.0883 37.5666L32.705 31.15L23.4883 36.051Z" fill="#1B1725"/>
<path d="M17.2915 36.699C17.3966 36.6115 17.518 36.5455 17.6486 36.5048C17.7792 36.4642 17.9166 36.4496 18.0528 36.4621C18.1891 36.4745 18.3215 36.5136 18.4426 36.5773C18.5637 36.6409 18.6711 36.7277 18.7587 36.8329C18.8462 36.938 18.9122 37.0593 18.9529 37.19C18.9935 37.3206 19.0081 37.4579 18.9956 37.5942C18.9832 37.7304 18.9441 37.8629 18.8804 37.984C18.8168 38.1051 18.73 38.2125 18.6248 38.3001L18.6238 38.3011L18.6217 38.3032L18.6186 38.3053L18.6082 38.3136L18.5769 38.3396L18.4696 38.4219C18.3787 38.4914 18.2512 38.5816 18.0873 38.6928C17.7592 38.9115 17.2853 39.1969 16.6873 39.4823C15.133 40.2281 13.4321 40.6184 11.7082 40.6251C11.4319 40.6251 11.167 40.5153 10.9716 40.32C10.7763 40.1246 10.6665 39.8597 10.6665 39.5834C10.6665 39.3071 10.7763 39.0422 10.9716 38.8468C11.167 38.6515 11.4319 38.5417 11.7082 38.5417C13.1222 38.535 14.517 38.2137 15.7915 37.6011C16.1859 37.4137 16.5667 37.1989 16.9311 36.9584C17.0509 36.8791 17.168 36.7957 17.2821 36.7084L17.2925 36.698L17.2915 36.699ZM20.6196 43.5751C20.8495 43.4217 21.009 43.1834 21.0631 42.9124C21.1172 42.6415 21.0615 42.3601 20.9082 42.1303C20.7548 41.9004 20.5165 41.7409 20.2455 41.6868C19.9746 41.6326 19.6932 41.6884 19.4634 41.8417L19.4613 41.8438L19.4405 41.8563L19.3509 41.9136C19.2682 41.9657 19.1471 42.0376 18.9873 42.1292C18.558 42.3744 18.1164 42.5976 17.6644 42.798C16.5519 43.2928 15.1446 43.7501 13.7915 43.7501C13.5152 43.7501 13.2503 43.8598 13.0549 44.0551C12.8596 44.2505 12.7498 44.5155 12.7498 44.7917C12.7498 45.068 12.8596 45.3329 13.0549 45.5283C13.2503 45.7236 13.5152 45.8334 13.7915 45.8334C15.5644 45.8334 17.2811 45.249 18.5113 44.7021C19.1798 44.4052 19.8281 44.0645 20.4519 43.6823L20.5707 43.6073L20.604 43.5855L20.6144 43.5792L20.6196 43.5751Z" fill="#1B1725"/>
</svg>
