<svg width="51" height="50" viewBox="0 0 51 50" fill="none" xmlns="http://www.w3.org/2000/svg">
<path d="M18.5 25.5L18 30L21.5 33L26.5 32L28.5 27L46.5 9L42 4.5L23.5 22.5L18.5 25.5Z" fill="white" stroke="#1B1725"/>
<path d="M31.0624 19.6876C26.5702 15.1954 20.2089 14.2911 16.8437 17.6563C16.1973 18.3055 15.6914 19.0807 15.3574 19.9337C15.1204 20.5039 14.7221 20.9924 14.2114 21.3394C13.7007 21.6864 13.0997 21.8766 12.4824 21.8868C10.1249 21.961 7.97649 22.7755 6.37493 24.3751C2.2343 28.5157 3.35344 36.3517 8.87493 41.8751C14.3964 47.3985 22.2324 48.5157 26.3749 44.3751C27.9745 42.7735 28.789 40.6251 28.8749 38.2677C28.8851 37.6503 29.0754 37.0494 29.4223 36.5386C29.7693 36.0279 30.2579 35.6296 30.8281 35.3927C31.6811 35.0586 32.4562 34.5527 33.1054 33.9063C36.4589 30.5411 35.5488 24.1759 31.0624 19.6876ZM22.6249 32.8126C21.6978 32.8126 20.7915 32.5377 20.0207 32.0226C19.2498 31.5075 18.649 30.7755 18.2942 29.9189C17.9395 29.0624 17.8466 28.1199 18.0275 27.2106C18.2084 26.3013 18.6548 25.4661 19.3104 24.8105C19.9659 24.155 20.8012 23.7085 21.7104 23.5277C22.6197 23.3468 23.5622 23.4396 24.4188 23.7944C25.2753 24.1492 26.0074 24.75 26.5224 25.5209C27.0375 26.2917 27.3124 27.198 27.3124 28.1251C27.3124 29.3683 26.8186 30.5606 25.9395 31.4397C25.0604 32.3187 23.8681 32.8126 22.6249 32.8126Z" fill="#787FDC"/>
<path d="M49.5116 9.05084L41.6991 1.23834C41.4059 0.945408 41.0084 0.780945 40.5939 0.781128C40.1795 0.781311 39.7821 0.946126 39.4892 1.23931C39.1962 1.5325 39.0318 1.93005 39.032 2.3445C39.0321 2.75894 39.197 3.15635 39.4901 3.44928L39.9472 3.90631L28.1952 15.6563C23.744 13.3399 18.7597 13.5333 15.7401 16.5508C14.9434 17.3512 14.3192 18.3064 13.9062 19.3575C13.7793 19.6424 13.5725 19.8844 13.3107 20.054C13.0489 20.2235 12.7435 20.3134 12.4315 20.3126C9.58194 20.4083 7.10733 21.4297 5.27334 23.2637C2.91397 25.629 1.92178 29.0235 2.45694 32.8262C2.97647 36.4649 4.86514 40.0684 7.78115 42.9688C10.6972 45.8692 14.2929 47.7657 17.9374 48.2852C18.5905 48.3829 19.2497 48.4338 19.9101 48.4376C22.9022 48.4376 25.5409 47.4161 27.4804 45.4766C29.3144 43.6426 30.3358 41.168 30.4315 38.3184C30.4312 38.0059 30.5219 37.7 30.6926 37.4381C30.8632 37.1762 31.1064 36.9697 31.3925 36.8438C32.4441 36.4317 33.3995 35.8074 34.1991 35.0098C37.2167 31.9903 37.4101 27.002 35.0937 22.5547L46.8437 10.8028L47.3007 11.2598C47.4457 11.405 47.6179 11.5202 47.8075 11.5988C47.9971 11.6774 48.2002 11.7179 48.4055 11.718C48.6107 11.7181 48.8139 11.6778 49.0035 11.5993C49.1932 11.5209 49.3655 11.4058 49.5106 11.2608C49.6558 11.1158 49.771 10.9435 49.8496 10.754C49.9282 10.5644 49.9687 10.3612 49.9688 10.156C49.9689 9.95081 49.9286 9.74759 49.8501 9.55796C49.7717 9.36833 49.6567 9.19601 49.5116 9.05084ZM31.9999 32.7989C31.5019 33.2949 30.9068 33.6826 30.2519 33.9376C29.4008 34.2882 28.6703 34.8794 28.15 35.6388C27.6297 36.3981 27.342 37.2926 27.3222 38.2129C27.2519 40.2559 26.5409 42.004 25.2851 43.2676C23.6366 44.9141 21.1835 45.6016 18.3788 45.1993C15.3983 44.7754 12.4159 43.2012 9.98233 40.7676C7.54873 38.334 5.97451 35.3516 5.55069 32.3848C5.16006 29.5782 5.83584 27.127 7.48233 25.4786C8.746 24.2188 10.494 23.5098 12.537 23.4376C13.4574 23.4182 14.3522 23.1307 15.1116 22.6103C15.8711 22.0899 16.4621 21.3593 16.8124 20.5079C17.0662 19.8494 17.4539 19.2509 17.9511 18.7501C19.0233 17.6778 20.4901 17.1622 22.1269 17.1622C23.4144 17.1829 24.6848 17.4611 25.8632 17.9805L21.9413 21.9122C20.7706 22.0411 19.6601 22.4982 18.7378 23.2308C17.8156 23.9634 17.1191 24.9417 16.7287 26.0529C16.3383 27.1641 16.2698 28.3631 16.5312 29.5115C16.7925 30.66 17.3731 31.7112 18.2059 32.544C19.0388 33.3769 20.09 33.9574 21.2384 34.2188C22.3869 34.4802 23.5858 34.4117 24.6971 34.0213C25.8083 33.6309 26.7866 32.9344 27.5192 32.0121C28.2518 31.0899 28.7089 29.9794 28.8378 28.8087L32.7597 24.8868C34.0331 27.8731 33.8495 30.9395 31.9999 32.7989ZM29.9687 20.7911C30.3814 21.2063 30.7682 21.6466 31.1269 22.1094L28.1151 25.1211C27.5408 24.0778 26.6819 23.219 25.6386 22.6446L28.6503 19.6309C29.1098 19.9905 29.5468 20.3779 29.9589 20.7911H29.9687ZM22.6249 25.0001C23.4537 25.0001 24.2486 25.3293 24.8346 25.9153C25.4207 26.5014 25.7499 27.2963 25.7499 28.1251C25.7499 28.7431 25.5666 29.3473 25.2232 29.8612C24.8799 30.3751 24.3918 30.7757 23.8208 31.0122C23.2498 31.2487 22.6214 31.3106 22.0152 31.19C21.4091 31.0694 20.8522 30.7718 20.4152 30.3348C19.9782 29.8977 19.6805 29.3409 19.5599 28.7347C19.4394 28.1285 19.5013 27.5002 19.7378 26.9292C19.9743 26.3582 20.3748 25.8701 20.8887 25.5267C21.4027 25.1833 22.0068 25.0001 22.6249 25.0001ZM32.1659 18.584C31.7515 18.1712 31.316 17.7801 30.8612 17.4122L35.1249 13.1465L37.6034 15.6251L33.3397 19.8868C32.9718 19.432 32.5807 18.9965 32.1679 18.5821L32.1659 18.584ZM39.8124 13.4141L37.3358 10.9376L42.1562 6.11529L44.6347 8.59381L39.8124 13.4141ZM19.0429 37.9551C19.188 38.1002 19.3032 38.2724 19.3818 38.462C19.4605 38.6515 19.501 38.8547 19.5011 39.0599C19.5012 39.2651 19.4608 39.4683 19.3824 39.658C19.3039 39.8476 19.1889 40.0199 19.0438 40.1651C18.8988 40.3103 18.7266 40.4254 18.537 40.5041C18.3475 40.5827 18.1443 40.6232 17.9391 40.6233C17.7339 40.6234 17.5306 40.583 17.341 40.5046C17.1514 40.4261 16.9791 40.3111 16.8339 40.1661L10.5839 33.9161C10.291 33.6229 10.1265 33.2253 10.1267 32.8109C10.1269 32.3964 10.2917 31.999 10.5849 31.7061C10.8781 31.4132 11.2756 31.2487 11.69 31.2489C12.1045 31.2491 12.5019 31.4139 12.7948 31.7071L19.0429 37.9551Z" fill="#1B1725"/>
</svg>
