<svg width="19" height="18" viewBox="0 0 19 18" fill="none" xmlns="http://www.w3.org/2000/svg">
<path d="M17 10.2476H10.75V16.4976C10.75 16.8291 10.6183 17.147 10.3839 17.3814C10.1495 17.6159 9.83152 17.7476 9.5 17.7476C9.16848 17.7476 8.85054 17.6159 8.61612 17.3814C8.3817 17.147 8.25 16.8291 8.25 16.4976V10.2476H2C1.66848 10.2476 1.35054 10.1159 1.11612 9.88144C0.881696 9.64702 0.75 9.32908 0.75 8.99756C0.75 8.66604 0.881696 8.3481 1.11612 8.11368C1.35054 7.87926 1.66848 7.74756 2 7.74756H8.25V1.49756C8.25 1.16604 8.3817 0.848095 8.61612 0.613675C8.85054 0.379254 9.16848 0.247559 9.5 0.247559C9.83152 0.247559 10.1495 0.379254 10.3839 0.613675C10.6183 0.848095 10.75 1.16604 10.75 1.49756V7.74756H17C17.3315 7.74756 17.6495 7.87926 17.8839 8.11368C18.1183 8.3481 18.25 8.66604 18.25 8.99756C18.25 9.32908 18.1183 9.64702 17.8839 9.88144C17.6495 10.1159 17.3315 10.2476 17 10.2476Z" fill="#787FDC"/>
</svg>
